/* XPM */
static char *exit[] = {
/* columns rows colors chars-per-pixel */
"64 64 251 2 ",
"   c #07051C",
".  c #140915",
"X  c #2A1614",
"o  c #3D2214",
"O  c #090726",
"+  c #0B0A25",
"@  c #0B0A29",
"#  c #060924",
"$  c #140A27",
"%  c #181A34",
"&  c #171128",
"*  c #3C1A34",
"=  c #361835",
"-  c #2D192E",
";  c #252439",
":  c #372732",
">  c #1E2037",
",  c #47270E",
"<  c #452714",
"1  c #583518",
"2  c #522F12",
"3  c #623C1B",
"4  c #431B37",
"5  c #553426",
"6  c #502C36",
"7  c #613F24",
"8  c #66323A",
"9  c #6C4319",
"0  c #7A4C1C",
"q  c #694528",
"w  c #755030",
"e  c #594135",
"r  c #2C2C42",
"t  c #373648",
"y  c #383249",
"u  c #592A48",
"i  c #5E2E50",
"p  c #4A3048",
"a  c #6B2C4B",
"s  c #652B48",
"d  c #6A324B",
"f  c #74344B",
"g  c #78374A",
"h  c #6B3553",
"j  c #7A3A53",
"k  c #773755",
"l  c #682E50",
"z  c #7F3D61",
"x  c #454559",
"c  c #5A4557",
"v  c #7B4857",
"b  c #7B5259",
"n  c #6D4A52",
"m  c #585867",
"M  c #4F5160",
"N  c #6A5767",
"B  c #7A5865",
"V  c #685871",
"C  c #666B74",
"Z  c #6A7279",
"A  c #6D6C74",
"S  c #5D6671",
"D  c #85531C",
"F  c #814F1A",
"G  c #885824",
"H  c #845C37",
"J  c #905F27",
"K  c #966632",
"L  c #A7733B",
"P  c #A37036",
"I  c #803C50",
"U  c #88474D",
"Y  c #934E4E",
"T  c #97534E",
"R  c #874656",
"E  c #934D54",
"W  c #934D5B",
"Q  c #895359",
"!  c #945253",
"~  c #9A5352",
"^  c #985859",
"/  c #89554A",
"(  c #A25C59",
")  c #966A46",
"_  c #98665D",
"`  c #936B48",
"'  c #A77748",
"]  c #AB665B",
"[  c #AC6A5C",
"{  c #A66759",
"}  c #B36B54",
"|  c #B46B5B",
" . c #B76B58",
".. c #A77857",
"X. c #B8755C",
"o. c #B27347",
"O. c #895966",
"+. c #965965",
"@. c #884962",
"#. c #A45B62",
"$. c #88646B",
"%. c #966968",
"&. c #9A726E",
"*. c #896975",
"=. c #9D6973",
"-. c #8A7578",
";. c #967677",
":. c #A56363",
">. c #AC6663",
",. c #AD6B64",
"<. c #A66B67",
"1. c #B36A64",
"2. c #B46B67",
"3. c #A97468",
"4. c #B47463",
"5. c #BB7A63",
"6. c #B97769",
"7. c #A97877",
"8. c #B87974",
"9. c #A56B74",
"0. c #C2775E",
"q. c #C47C69",
"w. c #C47C74",
"e. c #D17A6C",
"r. c #B88551",
"t. c #B88668",
"y. c #AB8572",
"u. c #A78779",
"i. c #BA8678",
"p. c #B0896B",
"a. c #CB9454",
"s. c #CA9351",
"d. c #DBA85D",
"f. c #C5836C",
"g. c #CC8B6C",
"h. c #C68666",
"j. c #D18E6D",
"k. c #CD926C",
"l. c #D2936D",
"z. c #C98A74",
"x. c #C89479",
"c. c #D49474",
"v. c #DB9C7A",
"b. c #D79A77",
"n. c #D38E74",
"m. c #DDA862",
"M. c #DDA27A",
"N. c #E5AB64",
"B. c #EAB569",
"V. c #F6BC66",
"C. c #F4BC6A",
"Z. c #E2A47D",
"A. c #EABA77",
"S. c #F0BA74",
"D. c #E2AA5E",
"F. c #F3C25D",
"G. c #F6C164",
"H. c #F7C168",
"J. c #EDC173",
"K. c #F4C377",
"L. c #797B84",
"P. c #837B83",
"I. c #997C83",
"U. c #A97D82",
"Y. c #7D818B",
"T. c #89888B",
"R. c #998889",
"E. c #898A93",
"W. c #999598",
"Q. c #948E95",
"!. c #A78988",
"~. c #A68D97",
"^. c #AC9494",
"/. c #A6989B",
"(. c #B6979A",
"). c #B59087",
"_. c #A4A29E",
"`. c #BAA299",
"'. c #9999A3",
"]. c #9A8AA1",
"[. c #A79AA5",
"{. c #B193A2",
"}. c #A4A2A4",
"|. c #ABA6A8",
" X c #B7A8A7",
".X c #B8B3AD",
"XX c #ACAAB3",
"oX c #B3AAB9",
"OX c #BBB8B5",
"+X c #9EA1A0",
"@X c #CA9887",
"#X c #D79B86",
"$X c #C8938B",
"%X c #D9A487",
"&X c #D3A992",
"*X c #E4A885",
"=X c #E4BD84",
"-X c #E9B68A",
";X c #E5AA95",
":X c #E4B797",
">X c #F1B88F",
",X c #C6A7A7",
"<X c #C5B3AE",
"1X c #C5BAB4",
"2X c #C8BBB8",
"3X c #D4B9B6",
"4X c #D6B3AA",
"5X c #E6B7A9",
"6X c #F2BBA7",
"7X c #EEBBAE",
"8X c #C29DA7",
"9X c #F6CB88",
"0X c #F3CD93",
"qX c #F1C594",
"wX c #F0C991",
"eX c #CAC3BB",
"rX c #C6C3BB",
"tX c #D3C5BD",
"yX c #EAC5A8",
"uX c #FADAA6",
"iX c #F6C7B5",
"pX c #EED6B7",
"aX c #F5D8B8",
"sX c #ECC6AD",
"dX c #FBE3B7",
"fX c #FEE1A9",
"gX c #BAB7C1",
"hX c #D4BFD0",
"jX c #CCBCC9",
"kX c #CDC8C3",
"lX c #D3CBC4",
"zX c #D5C8C6",
"xX c #D6D3C9",
"cX c #DAD5CC",
"vX c #DDDAD3",
"bX c #DED5D3",
"nX c #DAC6D1",
"mX c #E5D6CC",
"MX c #F9D9C5",
"NX c #E2DCD4",
"BX c #E4DDD8",
"VX c #F1D2CD",
"CX c #FBE8C6",
"ZX c #E7E3DC",
"AX c #FBECD5",
"SX c #EBE6E0",
"DX c #ECE9E4",
"FX c #F2F1EC",
"GX c #F5EFED",
"HX c #EBDEE1",
"JX c #BFC2BF",
/* pixels */
"6.5.f.q.q.w.w.w.q.q.q.q.w.w.w.w.8.8.;XiX;X$X8.8.w.w.w.w.w.w.w.w.w.w.w.w.q.6.z.;XiX@X8.8.w.w.w.w.w.w.w.w.q.w.w.w.q.e.q.#XiX3X$X8.",
"[ [ [ [ [ [ >.>.[ ] | | | [ >.>.<.:.$X7X&X8.] ,.>.>.[ [ >.>.>.>.>.| 1.1.[ ] 6.#X7X).<.<.>.1.1.1.>.>.,.>.[ ] >.,.,.| ] i.5X,X!.:.",
"%._ ^ ^ _ _ ^ %.^ ~ ~ ~ T T ~ ~ ^ ! $X5X$X:.Y ~ ~ T T T T ~ ~ ~ T T ~ ~ ! T :.$X5X7.Y ! ! ~ ~ ~ ! ! ^ ^ ^ ^ ^ _ _ ^ ! 7.<X,X7.Q ",
"-.-.*.*.;.;.;.;.%.+.E E E E E E E U ).5X$X%.U E E ! ~ T ! E E ~ ~ Y Y E E U :.$X7X7.R U E E Y E E E ^ %.&.&.&.;.-.&.$.!.tX<X!.$.",
"W.~.~.~.~.~.~.^.U.=.E Y Y ! E E E Y ).5X$X%.U ! Y T ( ~ T Y ! ^ ^ ! Y ! E U ^ $X5X7.Q Y Y Y Y ! E W <.!.!.!.R.R.R.W.R.(.cXkX XR.",
".X X X.X X|./.!.U.9.( ^ { ( ( { ,.3.&X7X&X8.<.8.,.X.5.4.4.4.1.6.6.1.] ] >.>.8.#X7X@X8.3.{ ~ ^ { ( #.7.).).^.|. X XXX|.1XNXxX1X X",
"1X1X<X2X1X X).&.<.8.6.5.5.X.5.z.#X;XiXaX:X%X@X;X#Xb.b.M.%X%Xb.#X#Xb.z.z.z.#X*X6XMXyX:X%Xf.5.5.5.6.6.8.,.7.!..X1X2X1XOXkXZXvXeX<X",
"zXtXtX3X,X(.u.%.3.f.g.n.c.c.b.%X-X:XiXMX6X;X%X;X*XZ.Z.Z.*X-X*XM.M.*Xb.b.b.*X;XyXMXaXqX-X#Xb.v.b.c.g.f.,.<.7.(.<X2XlXeXxXZXvXlXeX",
"xXlXlX3X(.7.3.3.5.g.c.%X-X-X-X-X*X%X6XiX6X%Xb.#Xv.b.b.b.M.M.v.b.b.b.c.c.c.b.%X:XaXyX*X*X-X-X-X-X*Xc.f.5.4.4.7.(.3XzXlXcXZXZXcXlX",
"xXxXlX<X8.:.,.f.g.j.v.-XqXqXqX-Xb.g.;XiX;Xn.f.z.h.h.k.l.l.l.l.l.l.k.g.z.z.h.c.:XiX%Xz.b.*X>XqXqX-XM.j.g.h.6._ !.<XlXxXvXDXZXNXxX",
"xXxXtX).3.{ 6.g.b.*X>X>X>X*X*Xb.g.X.@X6X%Xq.X.5.} X.j.Z.Z.Z.Z.Z.v.k.q.X.| | f.%XiXx...t.b.*X-X-X>X>X*Xb.g.5.{ 3.).tXxXNXFXDXNXxX",
"cXxX<X7.<.,.f.c.*X>X>X-XZ.c.j.h.X.] @X6X#X6.[ | } X.j.Z.*XZ.Z.Z.Z.j.X. .| } 5.#X6Xz.{ 4.t.n.v.M.*X>X>XM.c.h.4.<.u.<XlXNXDXSXNXlX",
"vXlX`.&.<.6.g.b.*X-X%Xb.g.h.0. . .] @X6X#X6.] | X.q.j.c.c.c.c.c.c.j.q.X.| } 5.#X6Xz.{ ] 4.5.h.g.c.Z.*X*Xc.g.q.[ 3. XlXvXDXSXvXlX",
"vXlX`.%.,.f.c.*X*Xb.t.X.X.X. . .| ] @X6X#X6.] 2.q.g.j.q.X.X.X.X.h.g.z.5.| | q.#XiX$X] | | X.X.X.X.h.b.*XZ.c.z.,.&.`.kXZXDXSXNXxX",
"vX1X)._ 4.z.v.Z.v.h.} } }  . . .| ] #X6X#X6.] | X.h.j.h.h.h.h.h.h.j.f.5.| } 5.#X7X$X>.| |  . .} } X.g.Z.*Xv.g.4.<.!.eXZXDXSXNXxX",
"NX,X7._ t.b.Z.v.j.h. .} }  . . .| ] @X6X#X6.[ | X.h.j.b.b.b.b.b.b.j.q.4. .} 5.#X7X$X,.| |  . .} } X.h.c.v.v.c.5.[ ;.<XZXGXSXNXxX",
"BX X&._ z.v.v.g.g.g.q.q.0. . . .| ] @X6X#Xq.| 6.5.h.j.Z.*X*X*X-X*Xn.5.X.X.| q.*XiX$X,. .|  . .X.X.h.g.g.g.b.b.h...%..XZXDXSXNXxX",
"BX X%._ @X*Xj.g.l.M.v.v.n.0. .| 4.] @X6X;Xz.q.f.f.z.g.c.b.v.b.#X#Xg.f.f.f.q.n.;XiXz.]  . . .X.n.b.M.M.c.g.g.M.g...%.<XZXDXSXNXxX",
"BX X%.{ x.#Xh.h.l.b.v.v.c.q. .} [ { @X6X;Xf.4.6.4.4.X.X.6.6.4.6.6.4.4.4.5.4.z.;X7Xz.] [ }  .q.c.v.*Xv.c.h.h.b.g...%. XBXDXZXNXxX",
"BX X&.,.x.x.t.k.k.g.g.n.z.z.4.[ [ ..%XsX%X6.{ { ^ ! ! Y Y Q Q Y Y ! ! ^ _ { 6.#XiX$X4.[ } 5.z.z.c.c.z.z.f.5.n.z.p.&. XZXDXZXNXxX",
"ZX<X!.i.@X%Xx.%Xx.t.t.i.@X&Xx.i.i.x.5XiX&X7.%.%.Q b b b b b b b b b b Q O.%.8.&XiX5X@Xi.t.x.%Xi.i.i.i.#X#X@X@X@X).u.1XZXFXDXZXvX",
"FXbX3X5XsXyXyXsXyX:X:X:X5XsX5X5X5X7XVXAXVX4X,X,X{.{.{.(.(.(.{.{.(.(.{.{.8X,X4XVXHXVXsX5X;X5XsX5X5X5X5XyXsXyXyXyX5X<XbXGXGXFXFXDX",
"GXDXVXMXMXMXaXMXMXMXCXCXMXMXMXMXMXMXAXGXBXnXnXnXnXhXhXhXhXhXhXhXhXhXhXnXnXnXmXHXGXHXVXMXiXMXMXMXMXMXMXMXMXaXaXMXMXmXDXGXGXGXGXFX",
"GXZXmXMXMXiXiXiXaXCXCXCXMXpXiXMXMXsXmXHXnXoX|.oXoXoXoXoXoXoXoXoXoXoXoXoXoX|.OXnXSXnXzXMXiXiXaXCXCXAXCXMXaXsXaXMXVXmXDXGXFXGXGXFX",
"SX2X(.&X&X@X$X%X:XyXyXyX&X@X$X$X$X;.{.OXE.M t x x x p x x x x x p p x x x x m E.jX~.!.$X@X@X@X:XyXyXyX:X@X@X&X&X,X(.eXZXFXFXZXvX",
"cX<X).7.i.i.8.f.b.*X;X%X@Xi.8.8.7.v ;.[.C ; # @ @ + + + @ @ @ + + + + + @ @ ; V oX$.b 7.i.t.t.#X%X;X*X@Xi.6.i.).!.!.<XNXDXZXvXlX",
"kXeX`.7.9.8.z.f.z.c.#X#Xx.f.w.8.:.f $.[.V ;   $ + + + O @ @ O O O O O + O   ; V [.n 8 <.8.f.f.g.c.#X#Xz.8.6.i.3.7.(.2XbXZXNXxXkX",
"eXlX<X;.%.9.8.8.6.6.6.6.6.6.6.2.+.6 B ].V ;   $ O O O # # @ @ O O O @ O O   ; N [.c 6 ^ <.6.6.4.6.6.6.8.8.8.3.<.u.4XtXzXNXvXlXeX",
"2XlX3X(.=.O.Q Q W E E E E W E W v 4 V ].V ;   @ @ O O # # @ @ @ @ @ @ O O   ; N '.c 6 v R ! ! E E E E W W Q Q &.(.tXtXlXZXNXkXrX",
"1XeXzX3XU.B h f f g g g g g f f l = V ].V ;   O @ O # # # @ @ @ @ @ O O O   ; V [.c * d f f f f f f f f h n b !.2XlXeXlXSXNXkXOX",
"eXeXeXjX(.;.$.h f j I I j g f l i = V ].V ;   @ @ O # # # O O @ @ @ O O O   y Z [.c = u a f g j j j k h v *.I.`.2XkXeXlXZXvXeXOX",
"2XeXeX2X<X X~.B v R R R R R f l i = V ].N -   & @ @ #   O & & $ @ @ O O   . p T.|.c = u s g U R R R R v O.~.<X2X2X2X2XlXZXvXkXrX",
"eX2X2XeXzXzX2X;.Q R W ^ ^ W k l i = V ].B 6 X - &       & - - &   O O O . X n ^.XXc = i s j ~ ^ ^ W R Q U.2XcXzXeX2X2XzXBXNXlXeX",
"tXeX2XlXbXNXbX`.%.j +.:.>.#.j l i = V [.;.n 5 5 X . . . o 5 6 X . . + . X < _ (.|.c * l a I ( 2.:.W j =.,XNXNXbXlXeX2XzXBXBXlX1X",
"2XeXeXeXkXlXlX X;.v ^ >.2.#.j l i = N ^.u.b q 7 o X X X 5 w v 6 o X . . X q _ (. Xc * l a U ( 2.:.Q b I.<XnXzXlXlXlX2XzXZXNXkXOX",
"2XeXeX1X.X.X.X XR.Q W >.2.:.I a i = N ^.u.H 9 q 1 < o o q / ` / q < . X < w 3.$X,Xc 4 l a U ( 2.:.Q b R.oXOXOX.X2XlXeXzXZXNXkXOX",
"eXeXrX.X|._._. X!.$.R ( 2.>.U f s - N ^.u.H 9 0 q 5 < 5 w ` ' ' H 1 X X 7 ` p.&X,Xc 4 s a U ( 2.^ Q B R.|.}.}.|..XeX2XzXSXNXkXOX",
"eXrXOX|._././. X~.O.j ^ ,.2.E f s * N ^.y.H 9 0 w q 2 q / ..' ' P w 1 5 w ` p.@X Xc 4 a f E 2.2.! v B Q.}.W.}.}.|.<X1XlXZXNXkXOX",
"eX1X X_.}.}.}.|.~.*.v Y :.>.W j s * N ^.y.H 9 0 0 3 2 q ` ..' ' P G 0 w ) ) p.`. Xc * s g W >.>.Q v $.W.}.W.}.}.}. X<XlXZXBXlX1X",
"eX.X|./.[.}.}.|.W.I.b R W #.W j s * N ^.y.H 9 0 9 2 2 w ` ..' L K G 0 H ' ' p.`. Xc * u k W ( ^ R b ;./.|.}.}././. X<XzXSXBXzX1X",
"eX.X X[.[.[.}.}.|.~.O.v R +.W j s = N ^.y.H 9 0 1 2 2 / ' ' L P J 0 G K ' ' p.`.|.c = u k R E U v O.~.[.}.+XW.W._. X<XzXSXBXlX1X",
"eXOX X[.[.}.}.[.[.{.*.v j @.R j s * N ^.y.H 9 w 1 , 1 ` ..' P J D D K L ' ' p.`.|.c * d k R R R v $.{.|.}.+X+X_.}..X1XlXZXvXeX<X",
"eX1XOX|.|.|.}.[.[.~.*.v j @.R j i * N ^.y.H 9 q 2 , 7 ) ..' P G F J P ' ' ' t.@X Xc 4 d k R R R v $./.|.}.}._._.|..XrXxXZXvXtX1X",
"eXeX2XoX|.[.[.}./.R.b k j @.@.v i * N ^.y.H 9 q 2 2 w ) ' ' K D G P r.r.r.L r.@X Xc 4 a j R R j v B R.[.}._._._. X1XeXxXZXNXxXeX",
"lXeXrXOXXX}.}.}.W.*.f a k j z z i * N ^.y.H 9 1 , 1 H ' ' P D D K s.s.a.s.L r.@X Xc 4 a k j j a d v -.W._._._. XOXrXeXcXZXZXcXkX",
"1X.X|.|.XXXX|.|.R.$.g d k k k k i = N ^.y./ 7 5 , 3 K ' ' J D J ' d.d.d.a.' t.@X Xc * s k k h a f v $.~.|.|..X.X|.|..XrXBXvXrX.X",
"W.Q.Q.Q.|.OXOX.X!.%.O.v k a k k i = N ^.y.H 7 5 < q ' ' K G D P s.N.N.N.d.r.t.@X Xc * u a a a l R O.%.^..X.XOX}.Q.E.T.}.xXJX}.E.",
"Z Z Z Z Q.XXOXOX!.&.=.+.j a a l i * N ^.y.H 3 1 2 w ' ' J D G r.D.V.C.B.N.a.k.@X Xc 4 d a a a v +.=.%.^..XOXXXQ.A A C T.gXXXT.A ",
"Z Z C C L.W.XX|.R.$.9.+.j s s a l 4 N ^.u.w 2 2 7 H ' K G D P d.C.V.H.C.N.m.l.#X Xc 4 f s 8 s j +.=.$.R.}.XX'.P.A C S T.OXXXT.S ",
"C Z Z Z L.E.[.W.-.O.9.+.R g f j k 4 N ^.u.w , , w ` ' G F J s.N.H.G.G.V.B.B.M.%X Xc 6 j g g f I =.=.B -.W.'.E.L.C Z C E.OXXXT.C ",
"C C Z Z Y.Q.W.T.$.O.=.<.:.^ W W R 6 B ^.u.w , o w ` ) 0 G L d.C.G.F.F.G.G.B.Z.&X Xn 6 @.+.+.+.+.9.=.B *.Q.'.E.L.Z Z C E.gXXXT.C ",
"L.Z C Z Y.Q.E.Z N n O.9.8.6.2.:.O.6 N ^.u.w , , H ) K F P a.B.S.C.G.F.G.G.B.A.:X,Xn u O.<.2.8.7.9.%.n N Z E.W.Y.Z Z C T.2XXXT.C ",
"E.L.C m Z Y.L.m p p n +.<.>.>.:.Q 4 N ^.u.e , 1 H K G D o.N.C.C.V.G.F.G.V.C.A.:X,Xc u O.+.:.<.=.+.v p p m L.E.L.m C Z W.kXOXW.L.",
"'.L.m x m C S y - - p h R U U E R 4 N ^.u.e o q H H F K s.B.C.H.G.F.F.V.V.V.S.:X,Xc 4 R R R U R h 6 - - t S Z m x S L.[.zXjX'.E.",
"Y.C x t t x x > + $ - u a a f k k * N [.!.8 < q G G D r.D.V.V.H.G.V.F.G.V.V.S.:X,Xc * h h d a s u - + + ; x x t t x C '.zXoXE.Z ",
"M t ; % ; r t % O O $ 4 i i s a a * N [.R.6 o 9 0 D K a.B.V.V.V.V.V.V.G.G.C.A.:X,Xc = i i s s u = $ + O % t r > % ; t L.gXW.m y ",
"r % O O & ; y % O O O = p p p u 6 * A [.;.5 , 9 0 J L m.C.V.V.V.V.G.C.C.C.B.A.:X4Xn * p u u u p - $ O O % r % @ # O O x |.L.t   ",
"% @ O @ & ; t % @ @ @ & - = = - - y R.1X-.e 2 q 0 P a.B.C.C.H.H.C.C.J.J.A.A.A.qXsX-.6 - - = = = & $ @ # % r % +   #   t W.L.t   ",
"r r r r t x x y r r r r y y y : : N  XtX-.b n H ) h.A.9X9XK.K.K.9X9X9X9X9XwX=X0XCX(.N p * * y p y r r ; t x x y ; r ; M '.E.M % ",
"P.L.L.P.T.E.Q.P.P.L.L.L.L.L.P.-.-./.mXmX`.).).i.@X:XuXfXuXuXuXuXuXfXuXuXfXuXuXdXAXlX/.P.*.*.*.P.P.L.L.L.T.Q.T.P.P.P.L.W.jXoXQ.Z ",
"mXmXmXmXmXNXBXmXmXmXmXmXmXNXmXmXmXCXAXAXAXCXCXCXCXCXCXCXCXCXCXCXCXCXCXCXCXCXCXAXAXAXmXmXmXmXmXmXmXNXNXmXmXCXmXmXmXmXmXBXGXDXBXbX",
"pXpXpXpXpXpXaXMXMXMXaXaXaXdXMXMXMXMXCXCXdXdXdXdXdXdXdXdXdXdXdXdXaXaXaXaXaXpXaXdXCXCXpXpXpXpXpXpXpXpXpXpXpXpXaXaXaXaXpXCXAXAXAXMX",
"=X=X=X=X=X=XwX0X0X0X0X0X0X0X0X0X0X0XuXdXfX0X0X0X0X0X0X0X0X0X0X0XwX=X=X=X=X=XwX0XaXyX:X=X=X=X=X=X=X=X=X=X=X=X-X-X-X-X-XyXdXCXaX0X",
"d.d.d.N.m.N.B.J.J.J.J.J.J.C.J.K.J.J.0XfXuX9XA.A.K.K.J.J.J.J.S.B.N.d.d.d.d.m.B.9XuX-XM.m.m.m.m.d.d.d.d.d.d.d.N.N.N.N.m.A.uXuX0XA."
};
