/* XPM */
static char *_7ad3791c2244ecfa55c68df929e683dogQDIQfy9Bx4mswh[] = {
/* columns rows colors chars-per-pixel */
"79 43 212 2 ",
"   c #080828",
".  c #180D2F",
"X  c #130D2B",
"o  c #1B1325",
"O  c #1B102F",
"+  c #171532",
"@  c #231826",
"#  c #38183C",
"$  c #201032",
"%  c #1F233F",
"&  c #30232A",
"*  c #53331D",
"=  c #653D1B",
"-  c #401B3F",
";  c #412921",
":  c #4D3122",
">  c #4F3331",
",  c #794919",
"<  c #6F4319",
"1  c #745030",
"2  c #6B4422",
"3  c #31314C",
"4  c #35394E",
"5  c #373D57",
"6  c #383B51",
"7  c #2B2A45",
"8  c #4A1E44",
"9  c #4A2341",
"0  c #582349",
"q  c #413A4A",
"w  c #68304D",
"e  c #692950",
"r  c #702F52",
"t  c #733152",
"y  c #793654",
"u  c #7A3954",
"i  c #753D5C",
"p  c #6B3051",
"a  c #3E455C",
"s  c #71504B",
"d  c #54586B",
"f  c #4E5368",
"g  c #7A5067",
"h  c #5C626F",
"j  c #5F6271",
"k  c #697078",
"l  c #70777E",
"z  c #626876",
"x  c #4F4A57",
"c  c #804E1E",
"v  c #865726",
"b  c #865E36",
"n  c #94632E",
"m  c #8F673F",
"M  c #996A36",
"N  c #A06636",
"B  c #A3733C",
"V  c #843E55",
"C  c #8B4457",
"Z  c #884457",
"A  c #914A55",
"S  c #914958",
"D  c #9B535B",
"F  c #9D595D",
"G  c #995158",
"H  c #A45A5A",
"J  c #A55858",
"K  c #A87840",
"L  c #AC625B",
"P  c #B26458",
"I  c #B96959",
"U  c #B5685B",
"Y  c #BE725E",
"T  c #B67C48",
"R  c #804E68",
"E  c #995C65",
"W  c #885A71",
"Q  c #A25E61",
"!  c #866677",
"~  c #966879",
"^  c #98747C",
"/  c #9A7379",
"(  c #A56464",
")  c #B56D61",
"_  c #AB756E",
"`  c #BF7864",
"'  c #BB7564",
"]  c #AD7278",
"[  c #AA6F74",
"{  c #996F47",
"}  c #C0755F",
"|  c #C57C64",
" . c #C87F63",
".. c #C17560",
"X. c #B88451",
"o. c #B78F60",
"O. c #B28976",
"+. c #CA8A54",
"@. c #CE8F55",
"#. c #E9A951",
"$. c #E9AD5E",
"%. c #F4BA5C",
"&. c #CC8365",
"*. c #CD8A69",
"=. c #C88268",
"-. c #D18C6A",
";. c #D2916D",
":. c #DD9760",
">. c #C58375",
",. c #CD8E7B",
"<. c #CF957B",
"1. c #D99B73",
"2. c #D4977F",
"3. c #D59972",
"4. c #CF916F",
"5. c #DCA174",
"6. c #DBA57A",
"7. c #DDA97B",
"8. c #D8B173",
"9. c #E9AA60",
"0. c #E5A460",
"q. c #F4BB60",
"w. c #F0B460",
"e. c #E0A979",
"r. c #E4B17D",
"t. c #ECB77B",
"y. c #ECB76D",
"u. c #F8C060",
"i. c #F9CB7B",
"p. c #777D83",
"a. c #967683",
"s. c #A67D83",
"d. c #7C8286",
"f. c #83888D",
"g. c #85878C",
"h. c #94828B",
"j. c #848493",
"k. c #988C96",
"l. c #9C9B9C",
"z. c #9A9496",
"x. c #8F9194",
"c. c #A3818B",
"v. c #A99B99",
"b. c #B0989F",
"n. c #A68992",
"m. c #B393A7",
"M. c #BE9DAA",
"N. c #A2A1A1",
"B. c #AAA8A6",
"V. c #AFACA9",
"C. c #BAA8A6",
"Z. c #B6B2AD",
"A. c #BAB3AB",
"S. c #BAB6B4",
"D. c #A7ABB5",
"F. c #9596A3",
"G. c #DDB290",
"H. c #E2AC81",
"J. c #E4B284",
"K. c #E6B889",
"L. c #E5B890",
"P. c #C8A6AC",
"I. c #C2B3AD",
"U. c #DCB4AB",
"Y. c #DFBAAF",
"T. c #C2BCB4",
"R. c #C9BDB9",
"E. c #CBABB1",
"W. c #E2BDB1",
"Q. c #EBC394",
"!. c #F1CA96",
"~. c #F2CB94",
"^. c #C5C3BB",
"/. c #C9C1B9",
"(. c #CFCABF",
"). c #F3D3A7",
"_. c #FBDFAF",
"`. c #F6D7AA",
"'. c #E6C3B3",
"]. c #E8CABA",
"[. c #EFD5BC",
"{. c #F5DBB6",
"}. c #FCE5BD",
"|. c #CFBFC5",
" X c #BDC0C2",
".X c #D0CCC1",
"XX c #DBCECA",
"oX c #D8D8C8",
"OX c #D8D4C9",
"+X c #DFDFD1",
"@X c #D5D5DB",
"#X c #DBDADB",
"$X c #C9C8C5",
"%X c #F2DBC5",
"&X c #E3DFDB",
"*X c #E3DBD3",
"=X c #E9E1D8",
"-X c #E5E4DD",
";X c #F0E8DF",
":X c #F7E7D6",
">X c #DCDCE1",
",X c #E9DEE3",
"<X c #ECE9E6",
"1X c #F3E6E3",
"2X c #F5EAE4",
"3X c #F9EEE7",
"4X c #FEF3E4",
"5X c #FAF2E9",
"6X c #F6F4F3",
"7X c #FAF9F5",
"8X c #FAF9F8",
"9X c #F2EDF0",
/* pixels */
"| | | | | | | | | | | | | | | | | | | | | | | W.2X<.| | | | | | | | | | | | | | | | | | | | | | <.2XW.| | | | | | | | | | | | | | | | | | | | | | | W.2X<.| | ",
"D D D D D D D D D D D D D D D D D D D D D D D E.1X[ D D D D D D D D D D D D D D D D D D D D D D [ 1XE.D D D D D D D D D D D D D D D D D D D D D D D E.1X[ D D ",
"^ ^ ^ ^ ^ ^ ^ ^ ^ ^ ^ E S S S S S S S S S S S P.1X[ S S S S S S D J S S S S D J S S S S S S S S [ 1XP.S S S S S S S S S S S E ^ ^ ^ ^ ^ ^ ^ ^ ^ ^ ^ R.<Xn.^ ^ ",
"B.B.B.B.B.B.N.N.l.z.v./ D D D D D D D F Q ( ( E.1X] F E ( Q F F L Y H Q Q E L Y H F F D F F F F ] 1XE.( ( Q F D D D D D D D / v.z.l.N.N.B.B.B.B.B.B.OX6XS.B.B.",
"T.T.T.T.T.T.S.N.a.E ) ` | | | | | | =.1.J.Q.Q.%X5XG.6.7.L.J.6.6.7.7.6.J.L.7.7.7.6.6.1.=.4.6.6.6.G.5X%XQ.Q.J.1.=.| | | | | | ` ) E a.N.S.T.T.T.T.T.T.&X6X$XT.T.",
".X.X.X(./.C.c.O._ ) ..&.-.1.e.J.J.J.J.J.J.J.J.%X3XJ.1.5.H.e.5.5.5.5.5.e.H.5.5.5.5.5.1.-.;.5.5.1.J.3X%XJ.J.J.J.J.J.J.J.e.1.-.&...U _ O.c.C./.(..X.X.X-X6XOX.X.X",
"oXoXOX.XI.s.D U | -.-.;.1.r.Q.~.!.!.Q.r.;.&.&.'.2X2.&.&.&.&.&.&.-.;.;.;.;.;.;.;.;.-.&.&.&.&.&.&.2.2X'.&.&.;.r.Q.!.!.~.Q.r.1.;.-.-.| U D s.I..XOXOXOX<X7X+XoXoX",
"oXoX.XI.[ Q U  .&.-.e.K.!.K.K.J.1.3.-.| Y I I U.1X>.I I I I I I -.r.r.r.r.r.r.r.r.-.I I I I I I >.1XU.I I Y | ;.3.1.J.K.K.!.K.e.-.&. .U Q [ I..XOXoX<X6X+XoXoX",
"oXoX^.b.E L | &.;.5.r.J.H.3.;.*. .| } I I I I U.1X>.I I I I I *.;.;.;.;.;.;.;.;.;.;.*.I I I I I >.1XU.I I I I } |  .*.-.3.H.J.r.5.;.&.| L E b.^.oXoX<X7X+XoXoX",
"oXoXZ.h.E ) -.-.5.r.r.1. .I I I I I I I I I I U.1X>.I I I I Y 1.;.} } } } } } } } ;.1.Y I I I I >.1XU.I I I I I I I I I I  .1.r.r.5.-.-.) E h.Z.oXoX<X7X+XoXoX",
"oXoXn.g ' &.-.e.5.;.;. .I I I I I I I I I I I U.1X>.I I I I I Y ;.e.e.e.e.e.e.e.e.;.Y I I I I I >.1XU.I I I I I I I I I I I  .;.;.5.e.-.&.' g n.oXoX<X7X+XoXoX",
"oXoXc.u ` ;.5.5.-. .1.3.;.;.;.*.I I I I I I I U.1X,.| | | | | | *.5.5.5.5.5.5.5.5.-.....| | | | ,.2XU.I I I I I I I *.;.;.;.3.1. .-.5.5.;.` u c.oXoX<X7X+XoXoX",
"oXoXc.u | 5.e.-. . .5.e.e.e.e.5. .I I I I I I U.2X2.&.| | | ` ` ` ` ` ` ` ` ` ` ` ` ` ` | | | &.2.2XU.I I I I I I  .5.e.e.e.e.5. . .-.e.5.=.u c.oXoX<X7X+XoXoX",
"oXoXc.u <.5.-.} *.5. .} } } }  .5.*.I I } &.&.'.1X>.H D D C u u u u u u u u u u u u u u C D D L >.1X'.&.&.} I I *.5. .} } } }  .5.*.} -.5.<.g c.oXoX<X7X+XoXoX",
"<X<X|.M.].[.'.U.'.[.Y.U.U.U.U.Y.[.'.U.U.Y.'.'.:X6X'.E.P.P.M.m.m.m.m.m.m.m.m.m.m.m.m.m.m.M.P.P.E.'.6X:X'.'.Y.U.U.'.[.Y.U.U.U.U.Y.[.'.U.'.[.].M.|.<X<X6X8X<X<X<X",
"7X7X9X,X3X3X2X1X1X2X5X5X5X5X5X5X2X1X1X2X2X1X,X9X8X>X@X@X@X@X@X@X@X@X@X@X@X@X@X@X@X@X@X@X@X@X@X@X>X8X9X,X1X2X2X1X1X2X5X5X5X5X5X5X1X1X1X2X3X3X,X9X7X7X8X8X7X7X7X",
"+X+Xb.~ G.J.2.>.>.,.L.Q.Q.Q.Q.L.,.>.>.2.,.] W P.>Xd 3 3 3 3 3 3 3 3 3 3 3 3 3 3 3 3 3 3 3 3 3 3 d >XP.W ] ,.2.>.>.,.L.Q.Q.Q.Q.L.,.>.>.2.J.G.~ m.+X+X<X7X-X+X+X",
".X.XC.s._ ` &.| |  .1.5.5.5.5.1. .| | | U A 9 k.@X3                                             3 @Xk.9 A U | | |  .1.5.5.5.5.1. ...| &.` _ s.C..X.X-X6XOX.X.X",
"/./..XR.W E ` ` ` ` ` ` ` ` ` ` ` ` ' L G y O j.@X3                                             3 @Xj.O y G L ' ` ` ` ` ` ` ` ` ` | ` ` E W R..X/./.&X6X.X/./.",
"/./..X.XA.^ u u u u y y u u u u u u y t t 0 . j.@X3                                             3 @Xj.. 0 t t y u u u u u u u u u u u u ^ A..X.X/./.&X6X.X/./.",
"/././..X/.b.a.a.R e y u u u u u u t e e e 0 . j.@X3                                           @ s #Xj.. 0 e e e t u u u u u u y e R a.a.b./.(./././.&X6X.X/./.",
"/./././././././.n.R Z C S S G S S u e e e 0 . j.#Xq o o o X           X o o X               o : { =Xj.. 0 e e e V G G S S S C Z g n././././././././.&X6X.X/./.",
"/./././.OX*X*X*XXXP.R u S H P P P C e e e 0 . j.&Xs = = = &           & = = &             o * v o.-Xj.. 0 e e e C P P P H S u g P.XX*X*X*XOX/./././.&X6X.X/./.",
"/././..X^.^.^.^.^.Z.a.R Z L I I I S e e e 0 . j.=Xm , , , = & ; @ X & 2 n n 1 > ; @     @ : v M o.;Xj.. 0 e e e S I I I L Z R a.Z.^.^.^.^.^.(.(././.&X6X.X/./.",
"/./.(.^.B.N.N.N.N.N.N.! t J P I I S e e e 0 . j.=Xm , , , , , , ; o 2 n K K K B v : o o : v B K o.;Xj.. 0 e e e S I I P J t ! N.N.N.N.N.N.B.^.(././.&X6X.X/./.",
"/./.Z.B.N.N.N.N.N.N.N.! e C J I I J V e e 0 . j.=Xm , , , , , , ; @ b B K K K B B v = = v B B K o.;Xj.. 0 e e V J I I J C r ! N.N.N.N.N.N.N.B.Z././.&X6X.X/.T.",
"/./.Z.N.N.N.N.N.N.N.N.h.W i S J J G C e e 0 . j.=Xm , , , , < : ; : M B K K K B n v , v M K K K o.;Xj.. 0 e e C D J J S i W h.N.N.N.N.N.N.N.N.Z././.&X6X.X/.T.",
"/./.Z.N.N.N.N.N.N.N.N.N.k.i u S S S C e e 0 . j.=Xm , , , , = o ; v B K K K B M , , v B K K K K o.;Xj.. 0 e e C S S S u i k.N.N.N.N.N.N.l.N.N.Z././.&X6X.X/.T.",
"/./.T.S.N.N.N.N.N.N.N.N.k.i u S S S C e e 0 . j.=Xm , , , , = o > B B K K K n , , v B B K K K K o.;Xj.. 0 e e C S S S u i k.N.N.N.N.N.N.N.N.S.T././.&X6X.X/.T.",
".X.X/.T.Z.B.N.N.N.N.N.h.g p t u u Z C e e 0 . j.=Xm , , , * ; ; 1 K K K B n v c N T +.+.+.X.K K o.;Xj.. 0 e e C Z u u t p g h.N.N.N.N.N.B.Z.T./..X.X-X6XOX.X(.",
"^.^.S.Z.Z.V.B.B.B.N.N.! r y t e e y V e e 0 . j.=Xm , , , ; o 2 n K K B M , c n @.:.:.:.:.@.T K o.;Xj.. 0 e e V y e e t y r ! N.N.B.B.B.V.Z.Z.S.^.^.-X6X.X^.^.",
"d.d.p.p.p.l.T.T.T.S.N.^ S ) G e e e e e e 0 . j.=Xm , , , ; @ b B K K n , , N @.$.q.q.q.0.:.@.X.o.;Xj.. 0 e e e e e e G ) S ^ N.S.T.T.T.l.p.p.p.d.d. X<Xx.d.d.",
"k k k k k d.l.V.Z.B.x.! D | F e e e e e t w O j.=Xm , < : ; : M K B n v c N +.9.q.u.u.u.w.9.9.@.o.;Xj.O w t e e e e e F | D ! x.B.Z.V.l.f.k k k k k S.<Xf.k k ",
"k k k k k k p.l.l.x.l g S | L u u u y t V u O j.=Xm , = o ; v B B M , c n @.9.u.u.u.u.u.u.u.u.@.o.1Xj.O u V t y u u u L | S g l x.l.l.p.k k k k k k S.<Xf.k k ",
"k k k k k d.l.l.g.k k g u | =.` ` ` ' L D u O j.=Xm , = o > B B n , , N @.$.q.u.u.u.u.u.u.u.u.$.1.2Xj.O u D L ' ` ` ` =.| u g k k g.l.l.d.k k k k k S.<Xf.k k ",
"f.f.k d d z p.f.h 6 6 3 9 A F F F F F J S w O j.=Xm * ; ; 1 B n v c N +.9.q.u.u.u.u.u.u.u.u.u.9.6.3Xj.O w S J F F F F F A 9 3 6 6 h f.p.z d d k f.f.$X<Xl.f.f.",
"x.g.j 5 5 5 a h 4       . 8 0 e e e e V y 0 . j.=Xm ; o = v M , c n @.9.u.u.u.u.u.u.u.u.u.u.u.9.6.3Xj.. 0 y V e e e e 0 8 .       4 h a 5 5 5 j f.x.$X<Xl.g.g.",
"f 7 + + + + + a 7         . - e e e e e e 0 . j.=Xm ; o = , , , N @.$.q.u.u.u.u.u.u.u.u.u.u.u.9.6.3Xj.. 0 e e e e e e - .         7 a + + + + + 7 f D.#Xa % % ",
"%           + 5 7           $ # # # # # # - s A.#Xs ; : < , c N +.9.q.u.u.u.u.u.u.u.u.u.u.u.u.9.6.3XA.s - # # # # # # $           7 5 +           % F.@X3     ",
"3 3 3 3 3 3 6 h f 3 3 3 3 3 3 3 3 3 3 3 3 x 8.}.>Xd s m m m { 3.t.i.i.i.i.i.i.i.i.i.i.i.i.i.i.t.L.3X}.8.x 3 3 3 3 3 3 3 3 3 3 3 3 f h 6 3 3 3 3 3 3 F.>Xd 3 3 ",
"@X@X@X@X@X@X@X>X#X@X@X@X@X@X@X@X@X@X@X@X@X#X2X7X8X>X&X=X=X=X=X2X4X4X4X4X4X4X4X4X4X4X4X4X4X4X4X4X3X8X7X2X#X@X@X@X@X@X@X@X@X@X@X@X@X#X>X@X@X@X@X@X@X@X<X8X>X@X@X",
").).).).).).).).`._._._._._._._._._._._._._._.:X7X}._._._._._._._._._._._._._._.`.).).).).).).).{.7X:X).).).).).).).).).).).).).).).).).).).).).).).:X7X}._._.",
"#.#.#.#.#.#.#.#.%.u.u.u.u.u.u.u.u.u.u.u.u.u.u._.4Xi.u.u.u.u.u.u.u.u.u.u.u.u.u.q.#.#.#.#.#.#.#.#.y.4X).#.#.#.#.#.#.#.#.#.#.#.#.#.#.#.#.#.#.#.#.#.#.#.).4Xi.u.q."
};
