/* XPM */
static char *floor[] = {
/* columns rows colors chars-per-pixel */
"64 64 214 2 ",
"   c #4D430C",
".  c #5C4E19",
"X  c #595210",
"o  c #62561D",
"O  c #625721",
"+  c #645E2A",
"@  c #675C25",
"#  c #5F6334",
"$  c #64602E",
"%  c #6A612D",
"&  c #72672F",
"*  c #626233",
"=  c #6A6432",
"-  c #736B34",
";  c #847C1C",
":  c #8A7C1A",
">  c #927F1C",
",  c #8F801E",
"<  c #92811E",
"1  c #8C8222",
"2  c #948423",
"3  c #9B8724",
"4  c #9C8A26",
"5  c #958A2A",
"6  c #9B8C2C",
"7  c #978B26",
"8  c #9E912E",
"9  c #948D31",
"0  c #9A8E33",
"q  c #969031",
"w  c #9C9333",
"e  c #9D963A",
"r  c #9F993D",
"t  c #97943C",
"y  c #A18A24",
"u  c #A18E2B",
"i  c #AA8E27",
"p  c #A3912D",
"a  c #A8912B",
"s  c #A39433",
"d  c #A99532",
"f  c #AB9936",
"g  c #A39638",
"h  c #A49B3C",
"j  c #AB9C3C",
"k  c #A39934",
"l  c #B29B37",
"z  c #B29E3B",
"x  c #B99F39",
"c  c #AEA13E",
"v  c #B4A13E",
"b  c #B9A23C",
"n  c #9D8C45",
"m  c #9C934D",
"M  c #9F9E4F",
"N  c #A08E46",
"B  c #A59E42",
"V  c #AC9E41",
"C  c #A5944A",
"Z  c #A49752",
"A  c #A89A54",
"S  c #A89652",
"D  c #A5A044",
"F  c #ACA245",
"G  c #AEA946",
"H  c #ACA54A",
"J  c #AEAA4D",
"K  c #A2A14C",
"L  c #B3A343",
"P  c #BAA543",
"I  c #B6A846",
"U  c #BDA946",
"Y  c #B2A749",
"T  c #B4AA4D",
"R  c #BBAC4C",
"E  c #BAA748",
"W  c #ADA659",
"Q  c #B4AD52",
"!  c #BBAE51",
"~  c #B2AF59",
"^  c #B6B155",
"/  c #BCB254",
"(  c #B4B25A",
")  c #BCB55A",
"_  c #BCB85E",
"`  c #ACA564",
"'  c #ADA865",
"]  c #AAA96C",
"[  c #BEBA62",
"{  c #B9B664",
"}  c #A6AA70",
"|  c #A9AA70",
" . c #B3B170",
".. c #C1AA46",
"X. c #C2AE4B",
"o. c #C3B14E",
"O. c #CAB14D",
"+. c #C0AF51",
"@. c #C3B454",
"#. c #CBB554",
"$. c #CCB955",
"%. c #C3B659",
"&. c #C9B65A",
"*. c #C5BA5C",
"=. c #CBBC5C",
"-. c #C4B857",
";. c #D2B952",
":. c #D2BD5C",
">. c #D0B754",
",. c #C4BD63",
"<. c #CABE62",
"1. c #C7BF69",
"2. c #D1BD61",
"3. c #D5BE69",
"4. c #CBC15E",
"5. c #D3C15E",
"6. c #DAC35E",
"7. c #C6C165",
"8. c #CCC265",
"9. c #C5C26B",
"0. c #CBC46B",
"q. c #CDC86E",
"w. c #CECB67",
"e. c #D3C364",
"r. c #DAC664",
"t. c #DAC966",
"y. c #D3C66A",
"u. c #D9C66A",
"i. c #D4CA6C",
"p. c #DBCB6C",
"a. c #D0CC67",
"s. c #C7C574",
"d. c #CAC671",
"f. c #CDCB73",
"g. c #CECD78",
"h. c #D2C673",
"j. c #D4CC73",
"k. c #DBCE72",
"l. c #D3CC78",
"z. c #DECE78",
"x. c #D6D176",
"c. c #DCD174",
"v. c #D5D27C",
"b. c #DBD47B",
"n. c #DDD97E",
"m. c #E1CD6C",
"M. c #E5CC66",
"N. c #E3D16E",
"B. c #EBD06A",
"V. c #E1CF71",
"C. c #E3D374",
"Z. c #E9D575",
"A. c #E3D67A",
"S. c #E9D679",
"D. c #E4D97D",
"F. c #EBDA7C",
"G. c #E8D977",
"H. c #F1DE7C",
"J. c #E4E17C",
"K. c #F3E07F",
"L. c #D5D481",
"P. c #DBD682",
"I. c #D5D885",
"U. c #DCDA84",
"Y. c #DDDC8A",
"T. c #D5D588",
"R. c #DFDF91",
"E. c #E1D782",
"W. c #E3DC84",
"Q. c #EADD83",
"!. c #E2DE8A",
"~. c #ECDC8D",
"^. c #F0DD80",
"/. c #E2DF92",
"(. c #DDE18F",
"). c #DFE493",
"_. c #DEE599",
"`. c #E5E186",
"'. c #EBE185",
"]. c #E4E38D",
"[. c #EAE48C",
"{. c #EAE98E",
"}. c #E9E889",
"|. c #F3E383",
" X c #FAE585",
".X c #F2E58A",
"XX c #F3E88D",
"oX c #E4E493",
"OX c #E5E591",
"+X c #E1E495",
"@X c #E4E594",
"#X c #E4E794",
"$X c #E4E596",
"%X c #E6E695",
"&X c #E4E594",
"*X c #E8E591",
"=X c #E9E693",
"-X c #E5E895",
";X c #E6E895",
":X c #E9E897",
">X c #EBE994",
",X c #E3E598",
"<X c #E4E598",
"1X c #E5E699",
"2X c #E5E79A",
"3X c #E4E699",
"4X c #E9E699",
"5X c #E5E89A",
"6X c #EBE99A",
"7X c #F1E991",
"8X c #F1EC9A",
"9X c #E7E7A0",
"0X c #E6E9A3",
"qX c #E8EAA2",
/* pixels */
"oXoXoXoX+X$X1X&X].Y.$X:X!.j.W.b.( H 0.{.[.oXoX].].[.+X).(.(.5X+XY.P.P.{ K L.OXoX&X&XOX].oX&X+XY.+XoX].b.D.J.^ J 9.[.{.{.oXoX+X(.",
"oX&X&X&X$X,X1X&X+X+X&XoXj.J ,.9.^ r [ [.=XoX[.oXoX+X+X&X).(.$Xg.) ( f.( t 9.!.:XoXoXoXoXoXoX+X+X&XoXb.^ / a.T D ^ ].{.{.oX+X+X+X",
"oXoX&X1X1X1X&X&X&X1X&XW.7.e h T Q q ^ W.=XoXoXoX&X$X$X;X&X+X].,.h 0 %.Y 9 Q P.6X[.+X&X&X+X+X&X1X&X`.q.e w T T r D W.{.[.&X$X$X&X",
"[.[.].oX1X1X&XoX&X5X&Xb.8./ w h / w / W.].oX#X&X&X1X,X&X:X=Xn.i.R s L L j ! b.>XoX+X+X1X$X$X1X1XoXU.9.R h w @.L F D.[.oX5X1X$X+X",
".X[.].oX&X&XoX&X1X1X&XE.k.e.8 g 8.@.y.W.[.oXoXoX&X1X1X&XoX].D.A.=.f z X.=.8.E.>XoX+X$X1X$X,X1X&XoXW.c.e.L 6 =.=.=.Q.[.oXoX&X&XoX",
"Q.'.[.oX1X1X&X&X1X1XoX[.S.r.s z C.u.e.j.=XoXoX&X&X&X&XoX].].`.Q.e.f v 5.N.=.k.[.oXoX&X&X&X&X&XoX=X[.W.u.I s u.p.8.k.'.>X].&X&XoX",
"k.E.[.oX$X,X1X&X&X&X].[.F.5.z @.K.r.R / `.=XoX5X&XoX[.].].[.[.Q.e.v -.C.C.L @.b.].oXoX].].oXoXoXoX=X`.y.E P D.k./ ! b.XX[.=X&XoX",
"0.P.=X].+X$X1X&X&X$XU.b.k.C.e.C. Xp.R T U.=X&X&XoXoX=XoXoXY.x.A.V.e.c.'.A.j ! x.oXoXoXoX=XoX[.=XY.b.b.c.r.r.XXb.Q F j.7X>X:X&XoX",
"j.W.:XoX$X$X1X&X1X$XI.j.i.C.A.D.D.i.*.,.W.=X:X&X&X&X&X&XoXU.0.k.C.c.F.F.p.%.9.P.oX&XoXoX&XoXoX:XU.j.c.k.c.S.W.k.,.,.b.=X&X5X5X&X",
"Y.OX:X1X1X,X1X1X1X+XU.b.j.y.b.b.j.i.c.W.>X>X:X:X&X+X+X,X&XY.j.x.j.i.G.C.y.A.].oX&X&XoX].&X&X&X:XU.b.b.0.j.D.i.p.b.W.].+X_.5X5X1X",
"oX+X+X1X$X$X&X&X&XoXoX>XW.7.7.j.b.c.W.[.[.=X:X&XoX&X5X1X1X&X[.W.i.@.c.c.i.W.=X:X1X1X&XoX&X&X&X&XOX=X[.7.,.p.p.c.W.[.#X$X_._.,X1X",
"Y.].oX$X$X$XoX&X&XoX&X>X'.0./ <.W.y.,.j.[.:X&X&X+X+X&X1X1X1X:X[.i.I 8.c.j.,.j.oX1X1X&XoXoXoXoXoX:X>X>Xi.@.*.A.j.,.f.`.:X,X_.,X5X",
"9.v.oX+X$X&X&X&XoXoX&XU.j.%.F *.Q.,.B H P.oX&X1X+X+X&X&X1X$XY.b.*.c *.c.0.r Q v.$X1X1X&XoX&XoXoXoX!.x.*.U R D.9.B H j.=X1X,X,X5X",
"e ,.`.=X&XoX&XoXoX&X=X9.B w h =.C.%.w 9 ,.W.:X1X$X&X&XoX1XR.f.F 6 f <.j.*.w w ) +X1X1X5X&XoXoX[.].i.V s l @.c.,.h 9 _ W.&X1X&X&X",
"1 Q W.=XoX[.[.oX&XoXU._ w 2 R p.c.p.T w H b.6XOX+XoX[.].:X!.,.w 5 I k.A.u./ w F !.&X&X&X[.].].[.W.,.g 2 L p.k.p.%.0 Y j.:X+X+X:X",
": T W.=X=X[.[.oX:X=Xb.8.c < o.N.G.S.@.g H b.8XOXOXoX].oX=XW.0.h 6 L C.|.C.=.s B W.=XoXOX[.].[.>XE.7.Y 2 L S.C.S.e.6 L j.:X+X+X=X",
"6 @.W.=X:X=XoXoX&X=XU.c.@.> v p.|.G.! g _ Y.6X:XoXoXoX:X].E.b.R u u m. XS.-.j T !.:XoX].+XoX=X{.U.j.<.2 s m.Q.F.2.s R c.=X&X+X].",
"/ u.'.[.[.oXoXoX+X+X[.D.@.2 d =.G.G.<./ b.].&X+X+X&X&X&X].!.Q.o.y y >.Z.F.:.-.0.oX&X+X].+X+X].[.[.W.8.3 4 #.C.G.u.X.u.Q.oX&XoX].",
"k.D.}.oXoXOXoX&X$X+X:XW.:.j v X.e.C.k.j.W.oX$X+X+X&X&XoXOX=X[.=.z b ..e.C.p.p.n.=X&X$X+X&X+X+X+X:X!.8.v l X.e.C.C.u.S.[.oX+X+XoX",
"Q.[.=X:X&X&X+X+X&X&X=XW.k.=.=.-.=.C.c.b.].&X&X&X&X+X].+X&X5X[.p.:.:.@.<.c.k.A.!.:X1X1X;X+X+X+XoX:X].k.e.#.#.=.i.c.c.Q.[.&X$X,X1X",
"W.].&X&X1X$XY.v.Y.:XoX[.Q.A.j.c.D.A.i.q.[.&X&X:X:XY.L.Y.+X1XoX[.S.u.z.W.E.8.j.!.=X&X&XoXU.L.U.+X&XoX[.F.C.u.k.0.7.q.W.>X1X5X5X1X",
"].oX+XI.Y.U.f.~ 9.=X=X[.[.].Y.!.[.W.b.P.=X[.U.b.].f.~ d.Y.5X&X=X[.W.!.*X[.b.U.].=XU.P.W.f.) [ !.&XoXoXb.C.C.%.^ ,.E.[.[.Y.I.Y.].",
"&X:XU.[ ) ,.,.e Q P.=X=X[.].+X+X&XoXoXoX=XW.9.T y.%.e Q v.:X=XoX[.=XoXoX=XoX[.[.].7.) ,.,.F h P.:XoXP.) %.r.L h / [.7XW.0.( ,.c.",
"1X&Xx.F 5 h *.8 j i.[.>X].OX_._._.$XoXoX=Xb.T 2 L R j g 9.:X[.oXoXoXoXoX[.oX=X[.U.Y 6 g @.j 5 i.=XOXd.s p U b p f D.>XP.Q 9 g @.",
"&XY.j.%.d d R f I i.[.=X].+X$X_._.,X&XOX!.k.%.j d z E V 9.>X=XoXOX+X+X+XoXoX=X].c.<.j 3 R L j y.].].0.R f a ..v L W.].b.,.j s d ",
";XY.b.p.v a R -.=.k.[.>XOX+X1X,X$X,X&XOXW.A.u.X.u z 2.) j.[.=XoX&X&X+X$X&X&X&X].b.c.X.3 X.#.&.i.W.].k.e.z y ;.$.*.W.].U.j.R d y ",
"&X].W.S.P f =.C.k.0.[.>X:X&X1X&X&X1X&XoX!.[.C.@.a ..S.0.j.U.oX&X1X1X&XoX&X1X1X+XW.D.@.4 $.m.p.u.A.[.G.t.b i r.p.e.b.!.].A.@.f a ",
"oXoX].p.P I p.Q.<.F k.[.:X:X@X+X&X1X&XOX!.[.c.X.b r.[./ Q q.:X:X+X1X1X$X+X$X1X&X[.b.@.j u.C.2.F 7.'.F.5.U P F.p.! Q v.>XD.@.I R ",
"].P.b.A.e.y.W.Q.*.V i.!.=X[.=X&X&X&X:XoXb.b.c.y.e.S.'./ T ,.[.:X1X1X&X$X$X,XR.U.b.b.i.<.F.F.e.j @.c.b.k.r.r.|.p.R H 1.E.D.u.y.p.",
"!.j.0.A.A.D.[.U.9.%.c.].*X!.=X:X&X&X:X=Xj.j.k.c.D.F.C.8.*.0.].:X4X,X&X&X5X1XY.j.y.b.n.A.Q.S.r.@.=.i.j.c.A.D.F.p.=.*.<.j.C.C.A.'.",
"!.n.k.i.y.j.E.d.j.D.'.[.[.OXoX&X1X1X1XOXP.b.j.<.A.C.e.c.D.W.].:X1X+X$X1X1X&X!.E.b.j.q.j.k.u.r.G.A.c.b.9.q.A.i.i.c.Q.A.c.c.<.p.|.",
"].[.'.c.=.0.E.l.b.[.}.}.].oXoX&X1X&X&XOX].].b.%.i.c.i.D.'.[.=X&X&X,X,X1X1X&XoX[.[.x.8.8.c.C.c.'.[.[.[.9.,.c.j.c.D..X[.'.F.=.e.^.",
"[.>XXXC.@.%.n.v.0.0.J.}.[.oXoX&X1X&X&X&X=X>Xb./ %.i.A.8.i.E.=X&X&X5X1X,X$X;XoX=X{.c.*./ C.A.i.9.P.>X>X0.) ,.n.j.7.j.'.XXF.-.-.u.",
"{.`.n.p.P R j.j.J w w.`.{.].+X&X1X1X1X&X].E.y.E I y.D.h h ,.].4X&X&X5X$X+XoXoX`.b.i./ j p.k.! e ,.E.b.<.Y Y D.7.B H j.Q.p.R I ! ",
"{.v.^ s s ! c.0.F 5 G x.=X].+X&X1X1X1X&XU.^ w s / u.i.H q B b.OX&XoXoX+X+X;X=Xn./ h w H p.u.E 6 F / F s j *.c.<.B 0 T / f g E <.",
"].f.F 2 f =.S.j.) h w 0.:X+X&X$X$X,X5X+Xj.H 5 6 8.C.i.,.s 6 0.].:X&XoXoXoXoX[.x.Y 2 w *.c.C.=.j u p d 2 v m.p.i./ 6 s g 4 s %.D.",
"U.f.Q 6 z e.Q.Q.u.E 6 7.>X:X&X$X$X,X5X(.0./ h 6 u.'.C.C.L 6 9.!.:X:X:XoX].].W.x.%.5 s r.G.F.m.U 4 4 U 3 v F.Z.S.y.6 u f f d =.7X",
"W.W.y.d 4 o.XX'.e.v F i.=XoXoX&X,X5X1X].n.y.V : #.F.H.p.V g j.[.:X+X].[.].[.`.D.p.s 2 R F. XM.x d U 5.2 6 t.|.H.:.y b O.P 2 I Q.",
"[.[.p.s 3 I c.Q.p.#.=.D.>XoX&X$X$X$X&X=X[.y.j < P m.F.C.%.@.W.oX&X&XOXoXoX=X[.'.C.f 2 v p.H.B.O.$.t.e.5 7 -.Z.Z.r...6.r.b 2 j u.",
"[.[.k.V j I *.C.C.k.C.'.>X[.oX$X$X&XoX=X7Xi.E f P :.m.C.p.c.[.oX$X,X&X&X&X:X=X}.C.E f U #.m.Z.r.G.F.y.j f R 5.p.m.r.F.N.U l P @.",
":X].n.e.2.&.%.i.k.j.Q.[.[.].].].&X:XoX[.{.D.u.=.X.#.u.k.b.U.=X1X,X_.,X+X+X1X:X=XQ.p.:.;.O.e.b.j.W.[.j.e.#.o.$.t.C.C.Q.F.r.:.#.X.",
"1X&X[.Q.p.p.b.E.j.d.].[.[.:X>X].b.P.!.=X[.[.D.p.r.m.Q.j.j.P.OX1X1X-X$XI.L.+X1X:X[.Q.m.r.N.S.b.s.P.[.[.G.N.t.t.y.y.k.W.[.F.m.r.r.",
"&X&X=X.XD.D.[.oXU.v.].=X].b.].P.,._ x.>X[.[.].D.A.'.7XL.v.Y.oXY.U.P.U.9.( I.&X:X[.[.Q.S..X[.U.v.Y.oX[.c.V.C.8.@.*.b.].[.[.D.D.W.",
"&X&XoX{.{.[.[.oX&XoX!.[.b.^ 7.7.Q r 7.>X!.].].].+X&X:X!.OX>X=Xj.[ ) q.Q t 9.!.:XoX&X:X=X:XoX[.=X:XoXb./ @.i.Y V ) ].:XoX[.=X:X:X",
"1X&XOX[.oXoX(.).$X1XoXW.,.w r Q Q 5 T `.[.oXoX&X+X$X1X&X=X[.'.,.h w / G 9 Q b.>XoX&X&X$X&X&XoXoX:X].0.h s T Y e B W.=X&X&X1X1X1X",
"1X1X&XoX&X+X).+X$X&X:XP.7.Y w h / s / W.=X&X&X&X$X$X$X&X&X].D.y.I 8 G G F ) b.>X&X1X,X$X$XOXOX=X=X!.0.T g s ! F H W.=X&X$X,X,X$X",
"1X1X1X,X&X$X$X&X&X&X:XU.k.u.s g =.@.8.W.=X&X$X&XoX+X+X&X&X].n.A.:.f j ! ,.<.A.>X1X1X1X&X&XOX].=X>XW.k.y.L 4 *.*.*.W.oX&X&X$X$X&X",
"/.@X&X$X+X&X1X&X&X1X:X[.A.u.s j p.u.y.k.[.:X+X$X+X+XoX:X&XOX[.D.=.d V 8.D.8.c.[.1X1X&X&XoXoX:XoX].Q.S.r.v 4 p.k.y.b.].:X5X$X$X1X",
"l.W.=X+X+X&X&X&X&X1XOX[.Q.u.L @.H.u.R ! ].:X&X&X+X&X4X1XoX[.[.Q.e.v %.S.F.I @.n.&X5X$X+X].[.oXoX*X[.Q.e.U U F.k./ ) b.:X1X_.$X&X",
"9.b.[.].OXoXoXoX1X&XW.E.A.k.<.p.|.u.L L W.>X=XOX&X&X4X$XoX`.b.S.m.=.k.Q.S.j R x.=X:X+X].].[.oX&X!.E.A.r.:.r.|.p.T H j.:X&X,X,X;X",
"j.E.[.].oXoX].oX4X@XT.h.h.A.C.S.F.k.=.*.W.[.[.!.@X1X&X+X@XU.,.k.S.C.F.Q.C.@.4.n.=X&XoXoX:X&X1X5XL.0.i.C.C.Z.'.c.,.%.b.=X;X,X1X1X",
"!.].oX].+XoX].oX1X@XY.P.l.0.c.b.j.y.c.W.].oXOXOX&X1X1X1X+XY.b.c.i.8.D.c.9.b.E.].oX+X@X&X&X$X_.1XY.P.c.0.i.C.y.i.b.E.].oX;X$X$X1X",
"&X&X+X+XoXoX].].&X,X+X=XE.7.0.j.j.j.E.[.].OX&X&X&X&X5X1X,X+XoX`.a./ x.x.0.W.[.=X&X@X@X&X&X$X,X1X+XOX[.0.7.k.i.j.D.}.[.oX&X$X$X&X",
"U.!.oXoXoXoX].].&X1X&X>XQ.i.) 7.W.c.i.x.`.oXoXOX].].&X&X1X1XoX}.t.R y.n.b.q.v.].=X4X&X@X1X5X5X1X&X4X>Xj.*.8.D.C.y.j.W.=XoX&X&XoX",
"7.b.=XoX+X].oXoX&X1X1XW.k.=.F / C./ h H `.=X].].].].oX].oXoX].c.#.z %.j.0.w T c.[.=X@X+X&X1X$X+XoX].b.%.P R G.=.g F k.>X[.1X&XoX",
"h 7.[.oX$X+XoXoX&X1X&X0.I f j *.C.@.w w 0.!.=X].].].oX].oX].j.I d l 2.k.=.s s / !.oX+XOX:X&X&XoX].l.H d l #.C.=.f 6 %.W.oX+X$XoX",
": T W.=X1X&X&XoX&X1X].%.6 , I u.C.u.L w J v.6X].].OX&X&X&XY.[ 6 2 v m.S.e.R 8 h Y.oXoXoX&X&XoX:X!.,.0 < x p.p.u.@.5 L x.=X+X+X&X",
"; J U.=X&X&XoXoX&X+XP.8.L 2 -.C.S.S.-.s H b.8XoXoX&X1X4X@XP.,.B w L A.'.c.4.k h n.=XoX[.oXoXoX:XU.0.T 5 L S.C.S.8.0 H j.=X&X&X1X",
"w ) W.&X&XoXoXOXoXOXU.c.R : v p..XF.@.h ) P.>XoX&X1X1X&XOX!.v.Q 6 8 c.XXD./ k G W.=XoXoXoXoXoX:XW.c.*.1 w p.|.F.<.s Q b.:X1X&X&X",
"! i.[.1X&X&X&XoXoX=X].S.@.> d =.F.G.<.! j.!.=XOX$X1X1X&X@X@X]./ 6 4 =.F.D.-.R 7.].&X&XoX&XoXoX=X[.D.<.5 6 =.C.S.y.T 7.W.:X1X&XoX",
"k.W.>X4X1X1X1X1X1X&X[.S.$.d x X.:.S.A.k.W.OX:XoX+X+X:X:X&X&X[.#.l z ..5.Z.C.C.D.oX1X1X&X&X&X=X[.{.W.8.L z X.=.k.D.p.S.[.oX1X&X&X",
"~.>X6XqX0XqX0X0X0XqX:X[.C.:.:.2.3.A.A.P.%X:X&X&X].].oXoX&X&X=Xk.:.>.O.e.C.u.k.W.4XqX0X0X0XqX6X:X:X:XE.u.:.2.y.b.W.E.[.>X&X9X0X:X",
"` ` ] | } | | } } } ] ` W S n N S S n m s.R.1X+XoXY.v.U.+X:X].Q.S.p.u.u.y.8.k.l. .] | | ] ] ' ' ' ` ` A N N A Z m m W ' ] ] ] ] ",
"@ + + * # # * # # # * + @ @ . O & o   X Z T.4XY.oXv.[ g.].:XW.[.W.c.E.i.) 0.x.{ - * * * $ + $ = $ + % + o o & O     O = * * * * "
};
