/* XPM */
static char *link[] = {
/* columns rows colors chars-per-pixel */
"64 64 240 2 ",
"   c #000001",
".  c #090906",
"X  c #170807",
"o  c #061507",
"O  c #16150C",
"+  c #161611",
"@  c #290D0C",
"#  c #0D2309",
"$  c #0E370F",
"%  c #29291A",
"&  c #332C13",
"*  c #363625",
"=  c #2D2F23",
"-  c #540E13",
";  c #4A0C14",
":  c #432E19",
">  c #7A1128",
",  c #7A1127",
"<  c #640D21",
"1  c #4B3125",
"2  c #683C1E",
"3  c #104712",
"4  c #255218",
"5  c #126E0C",
"6  c #314A28",
"7  c #117928",
"8  c #187A28",
"9  c #0F7025",
"0  c #2C6D25",
"q  c #2A701B",
"w  c #4D490E",
"e  c #6A4E16",
"r  c #6C6D00",
"t  c #767103",
"y  c #7B7507",
"u  c #7C7E15",
"i  c #6F7004",
"p  c #5C5B3B",
"a  c #4B4D2F",
"s  c #714121",
"d  c #794A28",
"f  c #695226",
"g  c #5C6624",
"h  c #557826",
"j  c #796533",
"k  c #6D6C31",
"l  c #5C631C",
"z  c #252C68",
"x  c #5B5444",
"c  c #556C45",
"v  c #4F6A45",
"b  c #676743",
"n  c #756D4B",
"m  c #655C6B",
"M  c #A61F1F",
"N  c #981827",
"B  c #B11E28",
"V  c #D52728",
"C  c #8C7A09",
"Z  c #807709",
"A  c #927E0E",
"S  c #8A6C19",
"D  c #865A34",
"F  c #926E33",
"G  c #A77C37",
"H  c #885E14",
"J  c #8F704B",
"K  c #A07840",
"L  c #A37C4C",
"P  c #A67E5A",
"I  c #967F62",
"U  c #178F0E",
"Y  c #0CB706",
"T  c #21A918",
"R  c #21A517",
"E  c #2BB715",
"W  c #1B8128",
"Q  c #3B9926",
"!  c #278A29",
"~  c #3DA526",
"^  c #35B521",
"/  c #289812",
"(  c #488D16",
")  c #7E8119",
"_  c #4C912A",
"`  c #40A028",
"'  c #49A42C",
"]  c #40B43D",
"[  c #73A02A",
"{  c #0EDE07",
"}  c #14DA0E",
"|  c #17D212",
" . c #2CC518",
".. c #31CB18",
"X. c #31D018",
"o. c #38D417",
"O. c #25D214",
"+. c #1AE70E",
"@. c #10F808",
"#. c #13F30A",
"$. c #17E40D",
"%. c #3AD120",
"&. c #48F018",
"*. c #42E918",
"=. c #6EF307",
"-. c #54C61E",
";. c #3D9B44",
":. c #6A925C",
">. c #6F8656",
",. c #6BB04D",
"<. c #6FAB70",
"1. c #5A9D51",
"2. c #6BC468",
"3. c #5FC951",
"4. c #91881E",
"5. c #91861A",
"6. c #938E09",
"7. c #A0810E",
"8. c #AA8816",
"9. c #B5901D",
"0. c #B48914",
"q. c #90922D",
"w. c #928E2C",
"e. c #B49631",
"r. c #B0932A",
"t. c #D8971D",
"y. c #C48F18",
"u. c #C0AD0D",
"i. c #C4B412",
"p. c #D39922",
"a. c #D6A12D",
"s. c #DFA029",
"d. c #C9A336",
"f. c #D7A330",
"g. c #D6A73C",
"h. c #D7B537",
"j. c #E8A934",
"k. c #E9AA35",
"l. c #94F604",
"z. c #9ED313",
"x. c #D5C518",
"c. c #D1E707",
"v. c #F8F800",
"b. c #F5F402",
"n. c #F2EA0E",
"m. c #E5C830",
"M. c #E6CB2C",
"N. c #8A8A58",
"B. c #908E4A",
"V. c #B18B4C",
"C. c #A8A340",
"Z. c #A7A94A",
"A. c #A1A347",
"S. c #B2AD4C",
"D. c #B2B356",
"F. c #B5B25A",
"G. c #AFAC57",
"H. c #969762",
"J. c #948E6D",
"K. c #AB8F73",
"L. c #89B773",
"P. c #A9AA6B",
"I. c #B6B776",
"U. c #B4AB65",
"Y. c #8FA85D",
"T. c #C39748",
"R. c #DBB64D",
"E. c #D8A850",
"W. c #D7A750",
"Q. c #DCBD58",
"!. c #D3B25A",
"~. c #CCAE50",
"^. c #E8B445",
"/. c #E5B041",
"(. c #E7BC51",
"). c #C3AD78",
"_. c #88CF72",
"`. c #BFC066",
"'. c #E7C15B",
"]. c #C6C76F",
"[. c #CAC268",
"{. c #D3C96D",
"}. c #D2D37D",
"|. c #DAD57E",
" X c #D2CC78",
".X c #E6C765",
"XX c #E2CE70",
"oX c #E5D377",
"OX c #3050F8",
"+X c #314BD2",
"@X c #6976DD",
"#X c #1D3096",
"$X c #7F92F8",
"%X c #87A298",
"&X c #A4B094",
"*X c #ACAC9D",
"=X c #CDAD85",
"-X c #D1B189",
";X c #D8BA92",
":X c #93CB87",
">X c #A3DA8D",
",X c #B1EE99",
"<X c #AFC7BF",
"1X c #B6C5BA",
"2X c #B8F8A0",
"3X c #B7F7A0",
"4X c #9DDF90",
"5X c #DADB87",
"6X c #D8DA8C",
"7X c #DFC499",
"8X c #D9D899",
"9X c #E4DA83",
"0X c #E4DF8A",
"qX c #DEE290",
"wX c #C0F49E",
"eX c #E4E594",
"rX c #E2E59B",
"tX c #DFC9AC",
"yX c #F5DEB5",
"uX c #F3DFBD",
"iX c #EDD3AB",
"pX c #F8E0B8",
"aX c #F7E0B7",
"sX c #EAE4AA",
"dX c #CCEEA7",
"fX c #8F92DD",
"gX c #B3C2C2",
"hX c #D0D8D3",
"jX c #D0E8DF",
"kX c #D6E7CB",
"lX c #F3EBD4",
"zX c #D0E8E0",
"xX c #DDEBE7",
"cX c #E4ECE8",
"vX c #F4F5F4",
"bX c #F8F8F8",
"nX c #F8F6F4",
"mX c #EAF2EF",
"MX c #DBDAE8",
"NX c #D0A0F8",
/* pixels */
"eXeXeXeXeXeXeXeXeXeXeXeXeXeXeXeXeXeXeXeXeXeXeXeXeXeXeXeXeXoXQ.S.].0X.Xd.7.t C r.|.oXR.9.8.9.R.oXrXzXzXgXgXxXnXnXbXbXnXvXgXgX8XeX",
"eXeXeXeXeXeXeXeXeXeXeXeXeXeXeXeXeXeXeXeXeXeXeXeXeXeXeXeXeX.X^.9X0X9XeXQ.y.y t 4.}.eX9X^.k./.{.5XrXzXzXmXvXhXgXhXbXcXgXgXrXqXeXeX",
"eXeXeXeXeXeXeXeXeXeXeXeXeXeXeXeXeXeXeXeXeXeXeXeXeXeXeXeXeX0X9XeX.X^.9XS.y r 7.f.9XeXeX9X9X{.q.D.rXzXzXvXbXhXgXhXbXcXgX1XeXeXeXeX",
"S.Q.oXeXeXeXeXeXeXeXeXeXeXeXeXeXeXeXeXeXeXeXeXeXeXeXeXeXeXeXeXeXoX'.'.d.8.8.d..X0XeXeXeXoXR.Z 4.F.jXzXvXbXxXhXxXbXlX8X8XeXeXeXeX",
"A a..XeXeXeXeXeXeXeXeXeXeXeXeXeXeXeXeXeXeXeXeXeXeXeXeXeX}.|.9XeXeX9X^.k.k.k..XeXeXeXeXeX.Xa.A Z 4.zXzXvXbXxXzXcXbXlXeXeXeXeXeXeX",
"a.XX0XeXeXeXeXeXeXeXeXeXeXeXeXeXeXeXeXeXeXeXeXeXeXeXeX}.q.r.^.9XeXeX9X9X9X9X0XeXeXeXeXeX0XXXa.t.g.zXzXxXcXcXcXcXcXkXeXeXeXeXeXeX",
".X0XeXeXeXeXeXeXeXeXeXeXeXeXeXeXeXeXeXeXeXeXeXeXeXeXeX5XD.~..X0XeX5XD.~..X0XeXeXeX].S.Q.oX0X.X'.XXzXzXzXzXmXbXcXzXkXeXeXeXeXeXeX",
"eXeXeXeXeXeXeXeXeXeXeXeXeXeXeXeXeXeXeXeXeXeXeXeXeXeXeXeXeXeXeXeXeX}.q.8.f.9XeXeXeXD.4.f..XeXeXeXrXzXzXxXcXvXbXxXhXkXeXeXeXeXeXeX",
"eXeXeXeXeXeXeXeXeXeXeXeXeXeXeXeXeXeXeXeXeXeXeXeXeXeXeXeXeXeXeXeXeXqX}.C.4.}.eXeXeX5X}.9X0XeXeXeXrXzXzXvXbXbXbXhXgX1XeXeXeXeXeXeX",
"D.5XeXeXeXeXeXeXeXeXeXeXeXeXeXeXeXeXeXeXeXeXeXeXeXeXeXeXeXeXeXeXeX0X.Xd.8.C.~..X0XeXeXeX].Z.Z.Z.F.zXzXvXbXvXvXhX<X1XeXeXeXeXeXeX",
"u `.|.9XeXeXeXeXeXeXeXeXeXeXeXeXeXeXeXeXeXeXeXeXeXeXeXeXeX5X}.}.}.{.j.t.y.C 9.^.9XeXeX}.Z.u Z t 4.zXzXvXbXxXzXgX%X&XeXeXeXeXeXeX",
"i u r.^.9XeXeXeXeXeXeXeXeXeXeXeXeXeXeXeXeXeXeXqXqXqXqXqXqXD.) ) ) 5.p.0.C y.R.9XeXeX}.q.Z.{.a.7.u jXzXvXbXxXzXgX%X&XeXeXeXeXeXeX",
"7.t C r.|.eXeXeXeXeXeXeXeXeXeXeXeXeXeXeXeXeXL.8 ! ' ' ' ' ' ' ! 8 3 . & S.Q.oXeXeXoXQ.S.].0X.Xd.8.zXzXzXzXzXzXgX%X&XeXeXeXeXeXeX",
"y.y t 4.}.eXeXeXeXeXeXeXeXeXeXeXeXeXeXeXeXeXL.7 W ` ` ` ` ` ~ ! 7 3   % }.eXeXeXeX.X^.9X0X9XeXQ.p.jXzXzXzXzXzXgX%X&XeXeXeXeXeXeX",
"y r 7.f.oXeXeXeXeXeXeXeXeXeXeXeXeXeX,.;.1.,.] } } $.$.$.+.+.+.} } | Y U O * eXeXeX0X9XeX.X^.9XS.Z jXzX2.] 4XzXgX%X&XeXeXeXeXeXeX",
"8.8.d..X0XeXeXeXeXeXeXeXeXeXeXeXeXeX;.7 ! `  .@.@.@.@.@.@.@.@.@.@.@.@.Y   . ].eXeXeXeXeXoX'.'.d.r.jXzX~ T :XzXgX%X&XeXeXeXeXeXeX",
"k.k..XeXeXeXeXeXeXeXeXeXeXeXeXeXb p T | | O.+.@.@.@.@.@.@.O. .=.l.l.l.z.j D F L ].|.9XeXP.p k z.z.2.2.%X%X<.2.2.3.,.p b eXeXeXeX",
"9X9X0XeXeXeXeXeXeXeXeXeXeXeXeX6X.   Y @.@.@.@.@.@.@.@.@.@.^ ` z.v.v.v.n.E.W.s s S r.^.9Xn   $ &.*.T T gXNX<.T ..&.E   + eXeXeXeX",
".X0XeXeXeXeXeXeXeXeXeXeXeX6XN.N.5 5 { @.@.@.@.@.#.O.O.=.=.z.z.c.v.v.v.n.m.m.8.8.w.w.!.0Xn   $ o.X. . .:X:X3. .X.o./   + eXeXeXeX",
"^.9XeXeXeXeXeXeXeXeXeXeXeXI.  . #.@.@.@.@.@.@.@.+.` ' b.v.v.v.v.v.v.v.v.v.v.v.v.S s U.eXn   # T T &.&.&.&.&.&.X.T 5   + eXeXeXeX",
"9XeXeXeXeXeXeXeXeXeXeXeXeXI.  . | +.#.@.@.@.+.o.o.[ [ b.v.v.v.v.v.v.v.v.v.v.v.v.G D ).eXH.* 4 U U *.*.*.*.*.*.E U q * a eXeXeXeX",
"eXeXeXeXeXeXeXeX].Z.Z.Z.D.P.    Q ` $.@.@.@.-.K e.v.v.v.v.v.v.v.v.v.v.v.v.v.v.v.R.E.oXeXeXeXP.  o ..X...X.X.X.5   & Z.Z.D.5XeX5X",
"eXeXeXeXeXeXeX}.Z.u Z t u B.. . Q ` $.#.#.#.-.K e.v.v.v.v.v.v.v.b.v.v.v.v.v.v.v.h.W.XXeXeXeXP.  o %.%.%.%... .5 . & Z t u `.|.{.",
"eXeXeXeXeXeX}.q.Z.{.a.e   # Q Q Q ` ~ ~ [ G V.W.h.v.v.v.v.v.v.m.E.M.v.v.v.v.v.v.S s ).yXsXeXP.  + yXyXyXyXx   w A.[.a.7.i u r./.",
"eXeXeXeXeXoXQ.S.].0X.Xj   # ~ ` ` ` ` ` [ K V.E.h.v.v.v.v.v.v.m.E.m.v.v.v.v.v.v.S s ).pXsXeXP.  + yXpXpXpXx   a ].0X.Xd.7.t C r.",
"eXeXeXeXeX.X^.9X0X9XeXF   # ` ` ~ ` ! W k K V.E.h.v.v.v.v.d.e.x.n.n.v.v.v.b.e.e.& X I ;X7XeXP.  + yXpX7X;Xa   k 0X9XeXQ.y.y t 4.",
"eXeXeXeXeX0X9XeX.X^.9Xk   # ` ` ~ ` W 7 k K V.E.h.v.v.v.v.e.K x.v.v.v.v.v.b.G K O   J -X7XeXP.  + yXpX;X-Xa   b .X^.9XS.y r 7.f.",
"eXeXeXeXeXeXeXeXoX'.'.j   o ! ! ~ ` W 7 k K V.V.T.m.m.m.m.e.K x.v.v.v.n.m.h.: & z #Xm J n p a   o ,.,.,.,.=   b oX'.'.d.8.8.d..X",
"eXeXeXeX}.|.9XeXeX9X^.S   o 7 7 Q ` W 7 k G G G V.W.E.E.E.V.K x.v.v.v.n.W.T.    +XOXm s &       . R T T T $   b eX9X^.k.k.k..XeX",
"eXeXeX}.q.r.^.9XeXeX9XH.: a :.:.h h 0 0 j G F D F W.W.T.T.F D d.M.i.6.6.G G m m +XOXz : @       o E E E E 3   k eXeX9X9X9X9X0XeX",
"eXeXeX5XD.~..X0XeX5XD.S.G V.-X=Xd s s s D G D s D E.W.K K d s G E.j   O s d vXbX@XOXz           o X.X.X.X.3   b eX5XD.~..X0XeXeX",
"eXeXeXeXeXeXeXeXeX}.q.G F L ;X;XJ J d s F e.G d D V.V.F F J J K.K.n = 1 D J nXbX$X@Xz   + * %   o X.X. . .3   b eX}.q.8.f.9XeXeX",
"eXeXeXeXeXeXeXeXeXeX}.F s J pXpXyXyXJ s u.v.x.K F s s s s hXbX$XOX@X-X-X-X;XnXbXlXpXx   c 2XL.  o X.X.T T $   b eXeX}.C.4.}.eXeX",
"eXeXeXeXeXeXeXeXeX0X.XG 2 D iXiXyXyXJ s u.v.x.G F d d d d hXbX$XOX@X-X-X-X;XnXnXuXyXx   c 2XL.O #  . .R R 3 . n eX0X.Xd.8.C.~..X",
"eXeXeXeXeX5X}.}.}.{.j.H   O s d =X-XD s u.v.x.G V.=X=X=X=XlXbX$XOXfXyXyXyXyXyXpXV.K &   c 2X2X3X>X        N. X X}.{.j.t.y.C 9.^.",
"eXeXeXeXeXD.) ) ) 5.t.e   X s s =X-XD s u.v.x.K V.-X-X-X-XcXbXfXOXfXyXpXyXyXyXpXV.K &   c 2X2X2X>X        k ) ) ) 5.t.0.C y.R.9X",
"eXeXeX5XD.Z.C.8.C t 7.l   O _ _ D D & X 6.v.i.d D -X-XiXiXlXlXMXMXMXpXpXpXyX;X;X1 + >.:X>X2X_.= * I.I.P.B.A.C.8.C t 7.r.S.Q.oXeX",
"eXeXeX}.4.S.9X^.8.r r g   # ` ` s s X   6.v.u.s D -X-XyXpXpXpXlXbXlXpXyXpXyX-X-X%   :.2X2X2XL.  O eXeX}.4.S.9X^.8.r r q.5XeXeXeX",
"eXeXeX9Xf.Q.eX9XC.r r w   o ! ! U.U.%   S m.A @ : J J ;X7X7X7XtXtXtX7X-XP P a a >.:.>X2XL.p c N.H.eXeX9Xf.Q.eX9XC.r r y q.5XeXeX",
"eXeXeX0X.XoX0X.Xr.r r w   o 7 8 6XeX*   j E.j   X s d =X-X-X-X-X-X-X-XK.s 2     :X3X2X2X:.  * eXeXeXeX0X.XoX0X.Xr.r r C 8.C.].eX",
"eXeXeXeXeXeX9Xk.0.Z Z S e w _ ,. X|.J b j j a $ 3 g g Y.Y.H.P P P P P J a a     :X2XL.:.n b N.eXeXeXeXeXeXeX9Xk.0.Z Z 9.a.A S.9X",
"eXeXeXeXeXeX9Xk.t.t.t.R.XXa.s.f.4.r.^.9Xp   $ 7 W ` ` ` ` f s s s s s a 7 9     :X2Xp   b eXeXeXeXeXeXeXeXeX9Xk.t.t.t.R.XXa.s.f.",
"eXeXeXeXeXeX0X.X'.'.'.'.(.j.k.Q.S.~..X0Xp   $ ;.;.` ` ` ` g f j J j f g W 8     :.L.c * N.eXeXeXeXeXeXeXeXeX0X.X'.'.'.'.(.j.k.Q.",
"eXeXeXeXeXeXeXeXeXeXeX.Xk.k..XeXeXeXeXeXp   v 3X4X` ` ` ~ ~ ` _.2X_.` ` ` Q         N.}.5XeXeXeXeXeXeXeXeXeXeXeXeXeXeX.Xk.k..XeX",
"eXeXeXeXeXeXeXeXeXeXeX0X9X9X0XeXeXeX6X6Xc O c 2X4XQ Q ` ` ` ~ _.,X2.` ~ ~ Q . .     w ) D.eXeXeXeXeXeXeXeXeXeXeXeXeXeX0X9X9X0XeX",
"eXeXeXeXeXeXeXeXeXeXeXeXeXeXeXeXeXeX*   :.3X3X2X:X7 7 ~ ` ` ` ` ` ~ ~ ^ @.+.s s X   g y 4.D.5XeXeXeXeXeXeXeXeXeXeXeXeXeXeXeXeXeX",
"eXeXeXeXeXeXeXeXeXeXeXeXeXeXeXeXeXeX*   :.2X2X2X:X7 7 Q ` ` ` ` ` ` ~ ^ @.+.s s X   J u r u {.0XeXeXeXeXeXeXeXeXeXeXeXeXeXeXeXeX",
"eXeXeXeXeXeXeXeXeXeXeXeXeXI.% = ,XwX>X:X,X2X<.% 4 Q Q +.+.+.+.l.c.c.c.i.l l 0 0 o   H y r y a..XeXeXeXeXeXeXeXeXeXeXeXeXeXeXeXeX",
"eXeXeXeXeXeXeXeXeXeXeXeXeXI.  . ,X2X3X3X3X3X:.  # ` ~ @.@.@.@.l.v.v.v.x.s s 7 7 o   F 9.8.9.R.oXeXeXeXeXeXeXeXeXeXeXeXeXeXeXeXeX",
"eXeXeXeXeXeXeXeXeXeXeXP.a b K.K.sXsX2X3X:.a 0 U U g g ( ( ( ( i.v.v.v.c.E E ! ! o   N.^.k./.{.5XeXeXeXeXeXeXeXeXeXeXeXeXeXeXeXeX",
"eXeXeXeXeXeXeXeXeXeXeXN.  * pXpXpXpXdX3Xv   5 @.O.s s s s s s u.v.v.v.c.@.#.~ ~ #   N.9X9X{.q.D.eXeXeXeXeXeXeXeXeXeXeXeXeXeXeXeX",
"S.Q.oXeXeXeXeXeXeXeXeXN.  = tXtXyXpXJ.>.6 $ 5 O. .( ( ( ( ( ( =.l.l.l.=.@.#.4 4 o   N.eXoXR.Z 4.S.Q.oXeXeXeXeXeXeXeXeXeXeXeXeXeX",
"A a..XeXeXeXeXeXeXeXeXN.  % -X-XyXyX*   3 7 ! ~ ^ @.@.@.@.@.@.@.@.@.@.@.@.#.        N.eX.Xa.A Z A a..XeXeXeXeXeXeXeXeXeXeXeXeXeX",
"a.XX0XeXeXeXeXeXeXeXeXP.6 a I J.&X&X%   $ 3 8 ~ ^ $.$.@.@.@.@.@.@.#.$.| Y Y @ @ @ @ n P.).XXa.t.a.XX0XeXeXeXeXeXeXeXeXeXeXeXeXeX",
".X0XeXeXeXeXeXeXeXeXeXeXeXI.                3 ~ ` ` ~ @.@.@.@.@.@.O.Q q   . > > V V -   p 0X.X'..X0XeXeXeXeXeXeXeXeXeXeXeXeXeXeX",
"eXeXeXeXeXeXeXeXeXeXeXeXeXI.+ +     X X . . $ Q Q Q Q { { { { { { E Q q . X , N V V -   f eXeXeXeXeXeXeXeXeXeXeXeXeXeXeXeXeXeXeX",
"eXeXeXeXeXeXeXeXeXeXeXeXeXeXeX6X.   M V N > ;                         X > , V V V V -   p eXeXeXeXeXeXeXeXeXeXeXeXeXeXeXeXeXeXeX",
"D.5XeXeXeXeXeXeXeXeXeXeXeXeXeX6X.   M V N > ;                         X > , V V V V -   p Z.Z.Z.D.5XeXeXeXeXeXeXeXeXeXeXeXeXeXeX",
"u `.|.9XeXeXeXeXeXeXeXeXeXeXeX6X.   M V V V N < ;   . I.I.I.P.P.P.G.9.H X X @ @ @ @ J P.A.u Z t u `.|.9XeXeXeXeXeXeXeXeXeXeXeXeX",
"i u r.^.9XeXeXeXeXeXeXeXeXeXeX6X.   M V V V B > -   . 6XeXD.) ) 5.5.t.H             N.q.Z.{.a.7.i u r.^.9XeXeXeXeXeXeXeXeXeXeXeX",
"7.t C r.|.eXeXeXeXeXeXeXeXeXeXeXH.H.2 ; ; ; @ @ : H.H.5XD.Z.C.8.C t 7.w.k F B.H.H.B.T.S.].0X.Xd.7.t C r.|.eXeXeXeXeXeXeXeXeXeXeX",
"y.y t 4.}.eXeXeXeXeXeXeXeXeXeXeXeXeX*           * eXeX}.4.S.9X^.8.r r q.5XeXeXeXeX.X^.9X0X9XeXQ.y.y t 4.}.eXeXeXeXeXeXeXeXeXeXeX",
"y r 7.f.oXeXeXeXeXeXeXeXeXeXeXeXeXeX*           * eXeX9Xf.Q.eX9XC.r r y q.5XeXeXeX0X9XeX.X^.9XS.y r 7.f.oXeXeXeXeXeXeXeXeXeXeXeX",
"8.8.d..X0XeXeXeXeXeXeXeXeXeXeXeXeXeXeXeXeXeXeXeXeXeXeX0X.XoX0X.Xr.r r C 8.C.].eXeXeXeXeXoX'.'.d.8.8.d..X0XeXeXeXeXeXeXeXeXeXeXeX"
};
