/* XPM */
static char *be40bb25cdf44fdb8619e0f720bfc8481qSTkRrlxq54kUAX[] = {
/* columns rows colors chars-per-pixel */
"148 125 23 1 ",
"  c None",
". c #000001",
"X c #781028",
"o c #107828",
"O c #704020",
"+ c #D82828",
"@ c #A07840",
"# c #20A818",
"$ c #40A028",
"% c #30D018",
"& c #10F808",
"* c #48F018",
"= c #F8F800",
"- c #D8A850",
"; c #3050F8",
": c #88A098",
"> c #D0B088",
", c #B8F8A0",
"< c #F8E0B8",
"1 c #D0A0F8",
"2 c #B0C0C0",
"3 c #D0E8E0",
"4 c #F8F8F8",
/* pixels */
"                                                                                                                                                    ",
"                                                                                                                                                    ",
"                                                                                                                                                    ",
"                                                                                                                                                    ",
"                                                                                                                                                    ",
"                                                                                                                                                    ",
"                                                                                                                                                    ",
"                                                                                                                                                    ",
"                                                                                                                                                    ",
"                                                                                                                                                    ",
"                                                                                                                                                    ",
"                                                                                                                                                    ",
"                                                                                                                                                    ",
"                                                                                                                                                    ",
"                                                                                                                                                    ",
"                                                                                                                                                    ",
"                                                                                                                                                    ",
"                                                                                                                                                    ",
"                                                                                                                                                    ",
"                                                                                                                                                    ",
"                                                                                                                                                    ",
"                                                                                                                                                    ",
"                                                                                                                                                    ",
"                                                                                                                                                    ",
"                                                                                                                                                    ",
"                                                                                                                                                    ",
"                                                                                                                                                    ",
"                                                                                       22                                                           ",
"                                                                                       22                                                           ",
"                                                                                       33                                                           ",
"                                                                                       33                                                           ",
"                                                                                   ::  44                                                           ",
"                                                                                   ::  44                                                           ",
"                                                                                 ::22224422                                                         ",
"                                                                                 ::22224422                                                         ",
"                                                                                 222244444422                                                       ",
"                                                                                 222244444422                                                       ",
"                                                                           22334444444444444444443322                                               ",
"                                                                           22334444444444444444443322                                               ",
"                                                                                 332244444422                                                       ",
"                                                                                 332244444422                                                       ",
"                                                                                 3344224422                                                         ",
"                                                                                 3344224422                                                         ",
"                                                                                 33443344                                                           ",
"                                                                                 33443344                                                           ",
"                                                                                 33334433                                                           ",
"                                                                                 33334433                                                           ",
"                                                                                 33444422                                                           ",
"                                                                                 33444422                                                           ",
"                                                                                 334433::                                                           ",
"                                                                                 334433::                                                           ",
"                                                         oo$$$$$$oo..            333333::                                                           ",
"                                                         oo$$$$$$oo..            333333::                                                           ",
"                                                     oo$$&&&&&&&&&&&&..          33##33::                                                           ",
"                                                     oo$$&&&&&&&&&&&&..          33##33::                                                           ",
"                                                   ..&&&&&&&&&&$$====--OO    ..**##11##**..                                                         ",
"                                                   ..&&&&&&&&&&$$====--OO    ..**##11##**..                                                         ",
"                                                 ..&&&&&&&&$$============OO  ..##******##..                                                         ",
"                                                 ..&&&&&&&&$$============OO  ..##******##..                                                         ",
"                                                 ..$$&&&&@@==============--    ..%%%%%%..                                                           ",
"                                                 ..$$&&&&@@==============--    ..%%%%%%..                                                           ",
"                                               ..$$$$$$@@--======--======OO<<  ..<<<<..                                                             ",
"                                               ..$$$$$$@@--======--======OO<<  ..<<<<..                                                             ",
"                                               ..$$$$oo@@--====@@======@@..>>  ..<<>>..                                                             ",
"                                               ..$$$$oo@@--====@@======@@..>>  ..<<>>..                                                             ",
"                                               ..oo$$oo@@@@----@@====--..;;OO....####..                                                             ",
"                                               ..oo$$oo@@@@----@@====--..;;OO....####..                                                             ",
"                                               @@>>OOOO@@OO--@@OO--..OO44;;......%%%%..                                                             ",
"                                               @@>>OOOO@@OO--@@OO--..OO44;;......%%%%..                                                             ",
"                                               OO<<<<OO==@@OOOO44;;>>>>44<<..,,..%%##..                                                             ",
"                                               OO<<<<OO==@@OOOO44;;>>>>44<<..,,..%%##..                                                             ",
"                                               ..OO>>OO==@@>>>>44;;<<<<<<@@..,,,,....                                                               ",
"                                               ..OO>>OO==@@>>>>44;;<<<<<<@@..,,,,....                                                               ",
"                                               ..$$OO..==OO>><<<<44<<<<>>..,,,,..                                                                   ",
"                                               ..$$OO..==OO>><<<<44<<<<>>..,,,,..                                                                   ",
"                                               ..oo  ..--..OO>>>>>>>>OO..,,,,..                                                                     ",
"                                               ..oo  ..--..OO>>>>>>>>OO..,,,,..                                                                     ",
"                                                       ..oo$$$$OOOOOOoo..,,..                                                                       ",
"                                                       ..oo$$$$OOOOOOoo..,,..                                                                       ",
"                                                       ..,,$$$$$$,,$$$$....                                                                         ",
"                                                       ..,,$$$$$$,,$$$$....                                                                         ",
"                                                     ..,,,,oo$$$$$$$$&&OO..                                                                         ",
"                                                     ..,,,,oo$$$$$$$$&&OO..                                                                         ",
"                                                 ..,,,,,,..$$&&&&====OOoo..                                                                         ",
"                                                 ..,,,,,,..$$&&&&====OOoo..                                                                         ",
"                                               ..<<<<,,..&&OOOOOO====&&$$..                                                                         ",
"                                               ..<<<<,,..&&OOOOOO====&&$$..                                                                         ",
"                                               ..>><<..oo$$&&&&&&&&&&&&....                                                                         ",
"                                               ..>><<..oo$$&&&&&&&&&&&&....                                                                         ",
"                                                 ........$$$$&&&&&&$$..XX++..                                                                       ",
"                                                 ........$$$$&&&&&&$$..XX++..                                                                       ",
"                                                   ..++XX............XX++++..                                                                       ",
"                                                   ..++XX............XX++++..                                                                       ",
"                                                   ..++++XX..        ......                                                                         ",
"                                                   ..++++XX..        ......                                                                         ",
"                                                     ......                                                                                         ",
"                                                     ......                                                                                         ",
"                                                                                                                                                    ",
"                                                                                                                                                    ",
"                                                                                                                                                    ",
"                                                                                                                                                    ",
"                                                                                                                                                    ",
"                                                                                                                                                    ",
"                                                                                                                                                    ",
"                                                                                                                                                    ",
"                                                                                                                                                    ",
"                                                                                                                                                    ",
"                                                                                                                                                    ",
"                                                                                                                                                    ",
"                                                                                                                                                    ",
"                                                                                                                                                    ",
"                                                                                                                                                    ",
"                                                                                                                                                    ",
"                                                                                                                                                    ",
"                                                                                                                                                    ",
"                                                                                                                                                    ",
"                                                                                                                                                    ",
"                                                                                                                                                    ",
"                                                                                                                                                    ",
"                                                                                                                                                    ",
"                                                                                                                                                    ",
"                                                                                                                                                    ",
"                                                                                                                                                    ",
"                                                                                                                                                    ",
"                                                                                                                                                    "
};
