/* XPM */
static char *ruby[] = {
/* columns rows colors chars-per-pixel */
"64 64 158 2 ",
"   c #173515",
".  c #193216",
"X  c #173815",
"o  c #183A15",
"O  c #1D3B19",
"+  c #263F20",
"@  c #1A4417",
"#  c #1D4B19",
"$  c #1C4719",
"%  c #1A521A",
"&  c #1A5C18",
"*  c #25461B",
"=  c #1D691A",
"-  c #1D731A",
";  c #23771F",
":  c #274220",
">  c #285A23",
",  c #275B23",
"<  c #375329",
"1  c #236F24",
"2  c #267D23",
"3  c #287E24",
"4  c #2F702A",
"5  c #43551F",
"6  c #5E790F",
"7  c #6C6D00",
"8  c #6E7004",
"9  c #767103",
"0  c #7D7405",
"q  c #75770C",
"w  c #7D7E15",
"e  c #4B6537",
"r  c #697D49",
"t  c #807506",
"y  c #807709",
"u  c #807B0F",
"i  c #8C7A09",
"p  c #927E0E",
"a  c #907A15",
"s  c #298D25",
"d  c #2B8628",
"f  c #279424",
"g  c #299124",
"h  c #2B9F29",
"j  c #289C24",
"k  c #31962F",
"l  c #32992F",
"z  c #339A31",
"x  c #28A427",
"c  c #27AB25",
"v  c #29AB27",
"b  c #2AA429",
"n  c #2BAB29",
"m  c #27A324",
"M  c #29B127",
"N  c #29BB26",
"B  c #2BB228",
"V  c #29B827",
"C  c #69831C",
"Z  c #7F8119",
"A  c #798317",
"S  c #499F3B",
"D  c #27C224",
"F  c #628547",
"G  c #7B8E55",
"H  c #5FAA4A",
"J  c #68AD51",
"K  c #7CB55C",
"L  c #73C353",
"P  c #65E14C",
"I  c #69E152",
"U  c #79EB57",
"Y  c #91861A",
"T  c #91881E",
"R  c #848517",
"E  c #A0810E",
"W  c #AA8511",
"Q  c #AA8B1B",
"!  c #B58A14",
"~  c #A3911F",
"^  c #B5901D",
"/  c #898B25",
"(  c #90922D",
")  c #9D9F3E",
"_  c #A9972D",
"`  c #AD9D2E",
"'  c #B49627",
"]  c #C38F18",
"[  c #C69018",
"{  c #D5961C",
"}  c #DF9A1F",
"|  c #D89920",
" . c #D6A12D",
".. c #DFA029",
"X. c #C9A336",
"o. c #D7A330",
"O. c #E9A42C",
"+. c #E5A631",
"@. c #E9AA35",
"#. c #E8B03E",
"$. c #89985E",
"%. c #91A94A",
"&. c #A8A340",
"*. c #A7A94A",
"=. c #B3A743",
"-. c #B2AD4D",
";. c #BCA953",
":. c #B2B356",
">. c #B8B958",
",. c #96A466",
"<. c #8BBD66",
"1. c #A2AE6D",
"2. c #ABB572",
"3. c #DDB74F",
"4. c #D2B34C",
"5. c #C7B552",
"6. c #C8B45B",
"7. c #DCBD58",
"8. c #E5B041",
"9. c #E8B445",
"0. c #E7BC51",
"q. c #8BDD5C",
"w. c #86DE57",
"e. c #96FE5F",
"r. c #9DFB5F",
"t. c #A8FE59",
"y. c #9DC36F",
"u. c #BFC066",
"i. c #B7D07B",
"p. c #BAD37E",
"a. c #97FE61",
"s. c #9CFE62",
"d. c #9AE665",
"f. c #A8FB65",
"g. c #BEF17F",
"h. c #E7C15B",
"j. c #C6C76F",
"k. c #CAC86A",
"l. c #D0C76B",
"z. c #D4C96E",
"x. c #D2D37D",
"c. c #DAD57E",
"v. c #E6C765",
"b. c #E2CE70",
"n. c #E5D377",
"m. c #BDEF80",
"M. c #CED387",
"N. c #CBDC89",
"B. c #DADB87",
"V. c #D1D789",
"C. c #DBDE8F",
"Z. c #D5DC8C",
"A. c #E4DA83",
"S. c #E4DF8A",
"D. c #CDEC87",
"F. c #C5EE86",
"G. c #DDE191",
"H. c #E4E594",
/* pixels */
"H.H.H.H.H.H.H.H.H.H.H.H.H.H.H.H.H.H.H.H.H.H.H.H.H.H.H.H.H.n.7.-.j.S.v.X.E 9 i ' c.n.3.^ W ^ 3.n.H.H.H.H.H.H.H.H.H.H.H.H.H.H.H.H.",
"H.H.H.H.H.H.H.H.H.H.H.H.H.H.H.H.H.H.H.H.H.H.H.H.H.H.H.H.H.v.9.A.S.A.H.7.] 0 9 T x.H.A.9.@.8.z.B.H.H.H.H.H.H.H.H.H.H.H.H.H.H.H.H.",
"H.H.H.H.H.H.H.H.H.H.H.H.H.H.H.H.H.H.H.H.H.H.H.H.H.H.H.H.H.S.A.H.v.9.A.-.0 7 E o.A.H.H.A.A.z.( :.H.H.H.H.H.H.H.H.H.H.H.H.H.H.H.H.",
"-.7.n.H.H.H.H.H.H.H.H.H.H.H.H.H.H.H.H.H.H.H.H.H.H.H.H.H.H.H.H.H.n.h.h.X.W W X.v.S.H.H.H.n.4.u / -.7.n.H.H.H.H.H.H.H.H.H.H.H.H.H.",
"p  .v.H.H.H.H.H.H.H.H.H.H.H.H.H.H.H.H.H.H.H.H.H.H.H.H.H.x.c.A.H.H.A.9.@.@.@.v.H.H.H.H.H.v. .p t p  .v.H.H.H.H.H.H.H.H.H.H.H.H.H.",
" .b.S.H.H.H.H.H.H.H.H.H.H.H.H.H.H.H.H.H.H.H.H.H.H.H.H.x.( ' 9.A.H.H.A.A.A.A.S.H.H.H.H.H.S.b. .{  .b.S.H.H.H.H.H.H.H.H.H.H.H.H.H.",
"v.S.H.H.H.H.H.H.H.H.H.H.H.H.H.H.H.H.H.H.H.H.H.H.H.H.H.B.:.5.v.S.H.B.:.5.v.S.H.H.H.j.-.7.n.S.v.h.v.S.H.H.H.H.H.H.H.H.H.H.H.H.H.H.",
"H.H.H.H.H.H.H.H.H.H.H.H.H.H.H.H.H.H.H.H.H.H.H.H.H.H.H.H.H.H.H.H.H.x.( Q o.A.H.H.H.:.T o.v.H.H.H.H.H.H.H.H.H.H.H.H.H.H.H.H.H.H.H.",
"H.H.H.H.H.H.H.H.H.H.H.H.H.H.H.H.H.H.H.H.H.H.H.H.H.H.H.H.H.H.H.H.H.H.x.&.T x.H.H.H.B.x.A.S.H.H.H.H.H.H.H.H.H.H.H.H.H.H.H.H.H.H.H.",
":.B.H.H.H.H.H.H.H.H.H.H.H.H.H.H.H.H.H.H.H.H.H.H.H.H.H.H.H.H.H.H.H.S.v.X.Q &.5.v.S.H.H.H.j.*.*.*.:.B.H.H.H.H.H.H.H.H.H.H.H.H.H.H.",
"w u.c.A.H.H.H.H.H.H.H.H.H.H.H.H.H.H.H.H.H.H.H.H.H.H.H.H.H.B.x.x.x.z.+.} [ i ^ 9.A.H.H.x.*.w y 9 w u.c.A.H.H.H.H.H.H.H.H.H.H.H.H.",
"8 w ' 9.A.H.H.H.H.H.H.H.H.H.H.H.H.H.H.H.H.H.H.H.H.H.H.H.H.:.Z Z Z Y | ! i [ 3.A.H.H.x.( *.l. .E 8 w ' 9.A.H.H.H.H.H.H.H.H.H.H.H.",
"E 9 i ' c.H.H.H.H.H.H.H.H.H.H.H.H.H.H.H.H.H.H.H.H.H.H.B.:.*.&.Q i 9 E _ -.7.n.H.H.n.7.-.j.S.v.X.E 9 i ' c.H.H.H.H.H.H.H.H.H.H.H.",
"] 0 9 T x.H.H.H.H.H.H.H.H.H.H.H.H.H.H.H.H.H.H.H.H.H.H.x.T -.A.9.Q 7 7 ) x.H.H.H.H.v.9.A.S.A.H.7.] 0 9 T x.H.H.H.H.H.H.H.H.H.H.H.",
"0 7 E o.A.H.H.H.H.H.H.H.H.H.H.H.H.H.H.H.H.H.H.H.H.H.H.A.o.7.H.A.&.7 7 q ( x.H.H.H.S.A.H.v.9.A.-.0 7 E o.A.H.H.H.H.H.H.H.H.H.H.H.",
"W W X.v.S.H.H.H.H.H.H.H.H.H.H.H.H.H.H.H.H.H.H.H.H.H.H.S.v.n.S.v._ 7 7 i Q &.j.H.H.H.H.H.n.h.h.X.W W X.v.S.H.H.H.H.H.H.H.H.H.H.H.",
"@.@.v.H.H.H.H.H.H.H.H.H.H.H.H.H.H.H.H.H.H.H.H.H.H.H.H.H.H.H.A.@.! t t ^  .p =.A.x.c.A.H.H.A.9.@.@.@.v.H.H.H.H.H.H.H.H.H.H.H.H.H.",
"A.A.S.H.H.H.H.H.H.H.H.H.H.H.H.H.H.H.H.H.H.H.H.H.H.H.H.H.H.H.A.@.} { { 3.b. ...o.T ' 9.A.H.H.A.A.A.A.S.H.H.H.H.H.H.H.H.H.H.H.H.H.",
"v.S.H.H.H.H.H.H.H.H.H.H.H.H.H.H.H.H.H.H.H.H.H.H.H.H.H.H.H.H.S.k.;.h.h.h.0.O.#.7.-.5.v.S.H.B.:.5.v.S.H.H.H.H.H.H.H.H.H.H.H.H.H.H.",
"9.A.H.H.H.H.H.H.H.H.H.H.H.H.H.H.H.B.x.x.B.H.H.H.H.H.H.H.H.H.D.q.+ 2.H.v.@.@.v.H.H.H.H.H.H.x.( ' 9.A.H.H.H.H.H.H.H.H.H.H.H.H.H.H.",
"A.H.H.H.H.H.H.H.H.H.H.H.H.H.H.H.H.:.Z Z :.H.H.H.H.H.H.H.H.D.r.w.. : 1.S.A.A.S.H.H.H.H.H.H.H.x.c.A.H.H.H.H.H.H.H.H.H.H.H.H.H.H.H.",
"H.H.H.H.H.H.H.H.j.*.*.*.:.B.H.B.:.*.) q / :.B.H.H.H.H.H.F.a.e.q.. . O ,.H.H.H.H.H.H.H.H.H.H.H.H.H.H.H.H.H.H.H.H.j.*.*.*.:.B.H.B.",
"H.H.H.H.H.H.H.x.*.w y 9 w u.c.z.( -.l.w 7 w l.S.H.H.H.F.s.s.a.q.. .   * ,.H.H.H.H.H.H.H.H.H.H.H.H.H.H.H.H.H.H.x.*.w y 9 w u.c.z.",
"H.H.H.H.H.H.x.( *.l. .E 8 w ' 8.z.7. .y 7 y  .v.H.H.m.a.s.s.a.P - .     X $.C.H.H.H.H.H.H.H.H.H.H.H.H.H.H.H.x.( *.l. .E 8 w ' 8.",
"H.H.H.H.H.n.7.-.j.S.v.X.E 9 i ' c.n.3.^ W ^ 3.n.H.g.e.s.s.a.U N N & .     O G H.H.H.H.H.H.H.H.H.H.H.H.H.H.n.7.-.j.S.v.X.E 9 i ' ",
"H.H.H.H.H.v.9.A.S.A.H.7.] 0 9 T x.H.A.9.@.8.z.B.N.L f.t.f.I N B M V - .   o > V.H.H.H.H.H.H.H.H.H.H.H.H.H.v.9.A.S.A.H.7.] 0 9 T ",
"H.H.H.H.H.S.A.H.v.9.A.-.0 7 E o.A.H.H.A.A.z.( :.p.2 S d.U V M M M B B = @ % > V.H.H.H.H.H.H.H.H.H.H.H.H.H.S.A.H.v.9.A.-.0 7 E o.",
"H.H.H.H.H.H.H.H.n.h.h.X.W W X.v.S.H.H.H.n.4.u / %.3 3 f D M M M n n v c % % > V.H.H.H.H.H.H.H.H.H.H.H.H.H.H.H.H.n.h.h.X.W W X.v.",
"H.H.H.H.x.c.A.H.H.A.9.@.@.@.v.H.H.H.H.H.v. .p t A 3 3 f N M M n n v v c % % > V.H.H.H.H.H.H.H.H.H.H.H.H.x.c.A.H.H.A.9.@.@.@.v.H.",
"H.H.H.x.( ' 9.A.H.H.A.A.A.A.S.H.H.H.H.H.S.b. .{ ` 3 3 f N M M n v v v c % % > V.H.H.H.H.H.H.H.H.H.H.H.x.( ' 9.A.H.H.A.A.A.A.S.H.",
"H.H.H.B.:.5.v.S.H.B.:.5.v.S.H.H.H.j.-.7.n.S.v.h.>.3 3 f V n n v v v x v % % > V.H.H.H.H.H.H.H.H.H.H.H.B.:.5.v.S.H.B.:.5.v.S.H.H.",
"H.H.H.H.H.H.H.H.H.x.( Q o.A.H.H.H.:.T o.v.H.H.H.i.3 3 g V v v v v x x x % % > V.H.H.H.H.H.H.H.H.H.H.H.H.H.H.H.H.H.x.( Q o.A.H.H.",
"H.H.H.H.H.H.H.H.H.H.x.&.T x.H.H.H.B.x.A.S.H.H.H.i.3 3 g V v v v x x x x % % > V.H.H.H.H.H.H.H.H.H.H.H.H.H.H.H.H.H.H.x.&.T x.H.H.",
"H.H.H.H.H.H.H.H.H.S.v.X.Q &.5.v.S.H.H.H.j.*.*.*.%.3 3 s B v x x x x x x % % > V.H.H.H.H.H.H.H.H.H.H.H.H.H.H.H.H.H.S.v.X.Q &.5.v.",
"H.H.H.H.H.B.x.x.x.z.+.} [ i ^ 9.A.H.H.x.*.w y 9 C 3 3 s B x x x b b x x % % > V.H.H.H.H.H.H.H.H.H.H.H.H.H.B.x.x.x.z.+.} [ i ^ 9.",
"H.H.H.H.H.:.Z Z Z Y | ! i [ 3.A.H.H.x.( *.l. .E 6 3 3 s B x x x b b h x % % > V.H.H.H.H.H.H.H.H.H.H.H.H.H.:.Z Z Z Y | ! i [ 3.A.",
"H.H.H.B.:.*.&.Q i 9 E _ -.7.n.H.H.n.7.-.j.S.v.X.R 3 d ; m x x x b h x n 1 % > V.H.H.H.H.H.H.H.H.H.H.H.B.:.*.&.Q i 9 E _ -.7.n.H.",
"H.H.H.x.T -.A.9.Q 7 7 ) x.H.H.H.H.v.9.A.S.A.H.7.~ ; %   X j x x x x n k l d 4 Z.H.H.H.H.H.H.H.H.H.H.H.x.T -.A.9.Q 7 7 ) x.H.H.H.",
"H.H.H.A.o.7.H.A.&.7 7 q ( x.H.H.H.S.A.H.v.9.A.-.q *   X X @ f x x n l k k k H G.H.H.H.H.H.H.H.H.H.H.H.A.o.7.H.A.&.7 7 q ( x.H.H.",
"H.H.H.S.v.n.S.v._ 7 7 i Q &.j.H.H.H.H.H.n.h.h.X.W a 5 X X   o f n k k k k K Z.H.H.H.H.H.H.H.H.H.H.H.H.S.v.n.S.v._ 7 7 i Q &.j.H.",
"H.H.H.H.H.H.A.@.! t t ^  .p =.A.x.c.A.H.H.A.9.@.@.@.6.<       # z k k k J G.H.H.H.H.H.H.H.H.H.H.H.H.H.H.H.H.A.@.! t t ^  .p =.A.",
"H.H.H.H.H.H.A.@.} { { 3.b. ...o.T ' 9.A.H.H.A.A.A.A.S.M.e X   # z k k <.G.H.H.H.H.H.H.H.H.H.H.H.H.H.H.H.H.H.A.@.} { { 3.b. ...o.",
"H.H.H.H.H.H.S.v.h.h.h.h.0.O.#.7.-.5.v.S.H.B.:.5.v.S.H.H.M.e X $ l k K G.H.H.H.H.H.H.H.H.H.H.H.H.H.H.H.H.H.H.S.v.h.h.h.h.0.O.#.7.",
"H.H.H.H.H.H.H.H.H.H.H.v.@.@.v.H.H.H.H.H.H.x.( ' 9.A.H.H.H.V.r # z y.G.H.H.H.H.H.H.B.x.x.B.H.H.H.H.H.H.H.H.H.H.H.H.H.H.v.@.@.v.H.",
"H.H.H.H.H.H.H.H.H.H.H.S.A.A.S.H.H.H.H.H.H.H.x.c.A.H.H.H.H.H.C.F <.H.H.H.H.H.H.H.H.:.Z Z :.H.H.H.H.H.H.H.H.H.H.H.H.H.H.S.A.A.S.H.",
"H.H.H.H.H.H.H.H.H.H.H.H.H.H.H.H.H.H.H.H.H.H.H.H.H.H.H.H.H.H.H.H.j.*.*.*.:.B.H.B.:.*.) q / :.B.H.H.H.H.H.H.H.H.H.H.H.H.H.H.H.H.H.",
"H.H.H.H.H.H.H.H.H.H.H.H.H.H.H.H.H.H.H.H.H.H.H.H.H.H.H.H.H.H.H.x.*.w y 9 w u.c.z.( -.l.w 7 w l.S.H.H.H.H.H.H.H.H.H.H.H.H.H.H.H.H.",
"H.H.H.H.H.H.H.H.H.H.H.H.H.H.H.H.H.H.H.H.H.H.H.H.H.H.H.H.H.H.x.( *.l. .E 8 w ' 8.z.7. .y 7 y  .v.H.H.H.H.H.H.H.H.H.H.H.H.H.H.H.H.",
"H.H.H.H.H.H.H.H.H.H.H.H.H.H.H.H.H.H.H.H.H.H.H.H.H.H.H.H.H.n.7.-.j.S.v.X.E 9 i ' c.n.3.^ W ^ 3.n.H.H.H.H.H.H.H.H.H.H.H.H.H.H.H.H.",
"H.H.H.H.H.H.H.H.H.H.H.H.H.H.H.H.H.H.H.H.H.H.H.H.H.H.H.H.H.v.9.A.S.A.H.7.] 0 9 T x.H.A.9.@.8.z.B.H.H.H.H.H.H.H.H.H.H.H.H.H.H.H.H.",
"H.H.H.H.H.H.H.H.H.H.H.H.H.H.H.H.H.H.H.H.H.H.H.H.H.H.H.H.H.S.A.H.v.9.A.-.0 7 E o.A.H.H.A.A.z.( :.H.H.H.H.H.H.H.H.H.H.H.H.H.H.H.H.",
"-.7.n.H.H.H.H.H.H.H.H.H.H.H.H.H.H.H.H.H.H.H.H.H.H.H.H.H.H.H.H.H.n.h.h.X.W W X.v.S.H.H.H.n.4.u / -.7.n.H.H.H.H.H.H.H.H.H.H.H.H.H.",
"p  .v.H.H.H.H.H.H.H.H.H.H.H.H.H.H.H.H.H.H.H.H.H.H.H.H.H.x.c.A.H.H.A.9.@.@.@.v.H.H.H.H.H.v. .p t p  .v.H.H.H.H.H.H.H.H.H.H.H.H.H.",
" .b.S.H.H.H.H.H.H.H.H.H.H.H.H.H.H.H.H.H.H.H.H.H.H.H.H.x.( ' 9.A.H.H.A.A.A.A.S.H.H.H.H.H.S.b. .{  .b.S.H.H.H.H.H.H.H.H.H.H.H.H.H.",
"v.S.H.H.H.H.H.H.H.H.H.H.H.H.H.H.H.H.H.H.H.H.H.H.H.H.H.B.:.5.v.S.H.B.:.5.v.S.H.H.H.j.-.7.n.S.v.h.v.S.H.H.H.H.H.H.H.H.H.H.H.H.H.H.",
"H.H.H.H.H.H.H.H.H.H.H.H.H.H.H.H.H.H.H.H.H.H.H.H.H.H.H.H.H.H.H.H.H.x.( Q o.A.H.H.H.:.T o.v.H.H.H.H.H.H.H.H.H.H.H.H.H.H.H.H.H.H.H.",
"H.H.H.H.H.H.H.H.H.H.H.H.H.H.H.H.H.H.H.H.H.H.H.H.H.H.H.H.H.H.H.H.H.H.x.&.T x.H.H.H.B.x.A.S.H.H.H.H.H.H.H.H.H.H.H.H.H.H.H.H.H.H.H.",
":.B.H.H.H.H.H.H.H.H.H.H.H.H.H.H.H.H.H.H.H.H.H.H.H.H.H.H.H.H.H.H.H.S.v.X.Q &.5.v.S.H.H.H.j.*.*.*.:.B.H.H.H.H.H.H.H.H.H.H.H.H.H.H.",
"w u.c.A.H.H.H.H.H.H.H.H.H.H.H.H.H.H.H.H.H.H.H.H.H.H.H.H.H.B.x.x.x.z.+.} [ i ^ 9.A.H.H.x.*.w y 9 w u.c.A.H.H.H.H.H.H.H.H.H.H.H.H.",
"8 w ' 9.A.H.H.H.H.H.H.H.H.H.H.H.H.H.H.H.H.H.H.H.H.H.H.H.H.:.Z Z Z Y | ! i [ 3.A.H.H.x.( *.l. .E 8 w ' 9.A.H.H.H.H.H.H.H.H.H.H.H.",
"E 9 i ' c.H.H.H.H.H.H.H.H.H.H.H.H.H.H.H.H.H.H.H.H.H.H.B.:.*.&.Q i 9 E _ -.7.n.H.H.n.7.-.j.S.v.X.E 9 i ' c.H.H.H.H.H.H.H.H.H.H.H.",
"] 0 9 T x.H.H.H.H.H.H.H.H.H.H.H.H.H.H.H.H.H.H.H.H.H.H.x.T -.A.9.Q 7 7 ) x.H.H.H.H.v.9.A.S.A.H.7.] 0 9 T x.H.H.H.H.H.H.H.H.H.H.H.",
"0 7 E o.A.H.H.H.H.H.H.H.H.H.H.H.H.H.H.H.H.H.H.H.H.H.H.A.o.7.H.A.&.7 7 q ( x.H.H.H.S.A.H.v.9.A.-.0 7 E o.A.H.H.H.H.H.H.H.H.H.H.H.",
"W W X.v.S.H.H.H.H.H.H.H.H.H.H.H.H.H.H.H.H.H.H.H.H.H.H.S.v.n.S.v._ 7 7 i Q &.j.H.H.H.H.H.n.h.h.X.W W X.v.S.H.H.H.H.H.H.H.H.H.H.H."
};
