/* XPM */
static char *wall[] = {
/* columns rows colors chars-per-pixel */
"64 64 174 2 ",
"   c #010101",
".  c #090502",
"X  c #0E0A02",
"o  c #070708",
"O  c #080709",
"+  c #0D0D0D",
"@  c #120D01",
"#  c #100F0F",
"$  c #171301",
"%  c #181605",
"&  c #13120C",
"*  c #19170F",
"=  c #19190A",
"-  c #0F1011",
";  c #141413",
":  c #171817",
">  c #1D1D11",
",  c #171719",
"<  c #171819",
"1  c #1B1B1B",
"2  c #211E16",
"3  c #262108",
"4  c #2A250B",
"5  c #2F290F",
"6  c #302B0F",
"7  c #212111",
"8  c #20201B",
"9  c #342E13",
"0  c #353013",
"q  c #393414",
"w  c #3A351A",
"e  c #3D381A",
"r  c #242423",
"t  c #262827",
"y  c #262628",
"u  c #272928",
"i  c #2B2B2B",
"p  c #3F3C20",
"a  c #3C392A",
"s  c #2F2F30",
"d  c #353535",
"f  c #393730",
"g  c #383837",
"h  c #3B3C3B",
"j  c #403C19",
"k  c #423F24",
"l  c #454122",
"z  c #43432B",
"x  c #4E4829",
"c  c #544F31",
"v  c #565131",
"b  c #5A5537",
"n  c #55523D",
"m  c #5D593A",
"M  c #615D3F",
"N  c #3F4041",
"B  c #444444",
"V  c #474748",
"C  c #474848",
"Z  c #4C4C4C",
"A  c #515045",
"S  c #50504F",
"D  c #545454",
"F  c #575758",
"G  c #58575A",
"H  c #5A5A5A",
"J  c #656244",
"K  c #66674A",
"L  c #69674B",
"P  c #66694C",
"I  c #69694E",
"U  c #61615D",
"Y  c #615F61",
"T  c #656565",
"R  c #686767",
"E  c #676867",
"W  c #686866",
"Q  c #68676A",
"!  c #6B6B6B",
"~  c #6F706C",
"^  c #6F6F70",
"/  c #737374",
"(  c #747474",
")  c #757575",
"_  c #747475",
"`  c #757576",
"'  c #767676",
"]  c #767677",
"[  c #777777",
"{  c #727273",
"}  c #797977",
"|  c #777778",
" . c #777778",
".. c #7A7B78",
"X. c #79797A",
"o. c #79797A",
"O. c #7A7A7B",
"+. c #797979",
"@. c #7B7B7C",
"#. c #7C7C7C",
"$. c #7C7C7D",
"%. c #7D7D7D",
"&. c #7D7D7F",
"*. c #7E7E7E",
"=. c #7E7E7F",
"-. c #7F7F7F",
";. c #7E7F7D",
":. c #7A7A7B",
">. c #80817F",
",. c #7F7F80",
"<. c #808080",
"1. c #818182",
"2. c #828282",
"3. c #828283",
"4. c #838383",
"5. c #838384",
"6. c #858585",
"7. c #858586",
"8. c #878787",
"9. c #868686",
"0. c #878785",
"q. c #848585",
"w. c #888887",
"e. c #8A8A87",
"r. c #878788",
"t. c #878788",
"y. c #888888",
"u. c #898989",
"i. c #8A8A89",
"p. c #8A8A8A",
"a. c #8B8B8B",
"s. c #8C8C8C",
"d. c #8D8D8D",
"f. c #8E8E8E",
"g. c #8F8F8F",
"h. c #8E8E8D",
"j. c #8B8B8B",
"k. c #90908F",
"l. c #8F8F90",
"z. c #909090",
"x. c #919191",
"c. c #929292",
"v. c #939393",
"b. c #959595",
"n. c #949494",
"m. c #969696",
"M. c #949494",
"N. c #979798",
"B. c #989898",
"V. c #999999",
"C. c #9B9B9B",
"Z. c #9E9E9E",
"A. c #9B9B9B",
"S. c #A1A1A1",
"D. c #A3A3A3",
"F. c #ABABAB",
"G. c #ACACAC",
"H. c #ADADAD",
"J. c #B2B2B2",
"K. c #B7B7B7",
"L. c #B5B5B5",
"P. c #B3B3B3",
"I. c #BABABA",
"U. c #BCBCBC",
"Y. c #BFC0BF",
"T. c #BFC0C0",
"R. c #C2C2C2",
"E. c #CBCBCB",
"W. c #D3D3D3",
"Q. c #DCDCDC",
"!. c #E4E4E4",
"~. c #EBEBEB",
"^. c #F3F3F3",
"/. c #FCFCFC",
/* pixels */
"I z = & 1 s h h h d i t y y y t t t y y y y y y y y y y y y y y y y y y y y y y y y y y y y y y y y y y y y y t i d h h h d t < ",
"I z = : i B F F D V h d d d d f a d d d d d d d d d d d d d d d d d d d d d d d d d d d d d d d d d d d d d d d h B Z F F Z h t ",
"P z > 1 h H ( ( ! T F S Z Z Z A n Z Z Z Z Z Z Z Z Z Z Z Z Z Z Z Z Z Z Z Z Z Z Z Z Z Z Z Z Z Z Z Z Z Z Z Z Z Z Z S G Q ( O.! D h ",
"P z 7 t B Q 8.u.1.( Q T T T T U U T T T T T T T T T T T T T T T T T T T T T T T T T T T T T T T T T T T T T T T T { =.f.c.=.Y Z ",
"P z = 2 h G ( O.@.O.( / { ! Q W T Q Q T T T T T T T T T T T T T T T T T T T T T T T T T T T T T T T T T T Q { / ( =.8.f.f.O.H C ",
"P z = ; t h D T ! ( 1.1.=.( ! W T Q T T T T T T T T T T T T T T T T T T T T T T T T T T T T T T T T T T T ! O.1.8.u.u.u.1.! D h ",
"I z = + ; 1 i B G { f.c.8.O.! W T T T T T T T T T T T T T T T T T T T T T T T T T T T T T T T T T T T T Q ! =.f.n.c.f.8.( Y V d ",
"K z = . O + ; t V Q u.c.f.1.{ W W Q Q Q T T T T T T T T T T T T T T T T T T T T T T T T T T T T T T Q Q ! | 8.c.V.n.f.=.! G B i ",
"K z = .     o < d F ( 1.1.=.( { ~ ! Q Q T T T T T T T T T T T T T T T T T T T T T T T T T T T T T Q ! { ( ,.u.c.c.c.8.| Q F h i ",
"P z = .       ; t h F T ! ( =.=.O.{ Q T T T T T T T T T T T T T T T T T T T T T T T T T T T T T Q ! ( =.1.8.u.u.u.8.=.{ Q F h u ",
"P z =         O ; r d B G { 1.u.8.O.^ Q T T T T T T T T T T T T T T T T T T T T T T T T T T T T Q { O.8.f.c.f.8.=.O.{ Q T D h u ",
"P z =           O # ; i V T 1.k.f.1.| { ! ! Q Q Q Q Q Q Q Q Q Q Q Q Q Q Q Q Q Q W Q Q Q Q Q ! ^ { O.8.c.n.n.u.=.( { Q T T D h i ",
"P z =             o o < d F ( 8.e.8.1.,.=.O.( { ^ ! ^ { { { { { ! ! ! ! ! ! { { { { ! { { ( O.,.1.e.f.n.V.c.5.( ! Q T T T D h i ",
"P z = .               + t B G ! ..e.c.V.n.c.u.1.=.=.=.1.1.1.1.=.=.=.=.=.=.=.1.1.1.=.=.=.1.u.f.n.V.V.n.n.c.u.@.{ Q T T T T D h i ",
"P z = .               O ; t g Z Q f.F.I.K.F.Z.n.c.c.c.c.c.c.c.c.c.c.c.c.c.f.c.c.c.f.f.c.n.S.H.K.I.J.S.n.8.=.( ! Q T T T T D h i ",
"P z = .                 O ; < d G u.K.E.E.U.J.D.D.S.S.S.S.S.S.S.S.S.S.S.S.Z.Z.S.S.Z.S.D.F.K.R.E.W.R.F.c.=.^ ! Q Q T T T T D h i ",
"P z = .                   o O 1 Z =.H.E.E.R.U.K.K.J.F.F.F.F.F.F.F.F.F.F.F.F.F.F.F.F.H.K.I.R.W.Q.Q.E.F.f.( T T T T T T T T D h i ",
"P z = .                       ; d T u.D.J.U.R.R.R.I.J.J.H.H.H.J.H.F.H.H.H.H.H.H.J.I.U.R.R.E.W.Q.W.R.S.u.{ T T T T T T T T D h i ",
"P z =                         O r h H O.l.F.R.E.E.R.I.J.H.H.H.H.H.H.H.H.H.H.H.H.J.U.E.W.Q.W.W.W.E.K.V.1.{ T T T T T T T T D h i ",
"P z =                         o ; 1 i Z ! n.U.Q.Q.E.U.K.J.H.F.H.H.H.H.H.H.H.H.H.K.R.W.!.!.Q.W.R.I.F.c.=.! T T T T T T T T D h i ",
"P z =                           . O ; t D u.U.!.!.Q.R.I.K.J.H.H.H.H.H.H.H.H.J.K.U.E.Q.!.~.Q.E.R.J.Z.8.( ! T T T T T T T T D h i ",
"I z =                               o < Z 8.U.!.~.!.W.R.U.U.K.J.J.H.H.H.J.J.I.U.R.E.Q.Q.!.W.E.U.H.V.u.O.! T T T T T T T T D h i ",
"I z =                                 < V 8.R.~.^.~.Q.W.E.R.I.J.J.H.H.J.J.I.R.E.W.W.W.W.W.E.R.K.F.V.u.O.! T T T T T T T T D h i ",
"I z =                                 < Z 8.Y.~.^.^.~.!.Q.E.I.J.H.H.H.H.K.U.W.Q.!.Q.W.E.R.U.K.J.F.V.u.O.! T T T T T T T T D h u ",
"I z =                                 < Z 8.Y.~./././.^.!.W.R.K.J.H.F.H.I.R.Q.~.~.!.W.R.K.J.J.J.D.V.u.O.! T T T T T T T T D h u ",
"I z = .                               < Z 8.Y.~././.^.~.!.W.U.K.H.H.F.J.I.R.W.!.!.Q.E.I.J.H.J.H.D.V.u.O.! T T T T T T T T D h u ",
"I z =                                 < Z 8.Y.~.^.^.!.Q.W.R.I.J.H.F.H.J.K.U.E.W.W.E.U.K.H.H.H.F.D.V.u.O.! T T T T T T T T D h u ",
"I z = .                               < Z 8.Y.~.^.!.W.E.R.I.K.J.J.H.H.H.J.K.U.R.R.U.K.J.H.H.H.H.D.V.u.O.! T T T T T T T T D h u ",
"I z =                                 < Z 8.U.!.~.Q.E.U.K.J.J.J.H.H.H.H.H.H.J.K.K.J.H.H.H.H.H.H.D.V.u.O.! T T T T T T T T D h t ",
"I z =                                 < Z 8.U.!.~.Q.R.K.H.H.H.H.H.F.H.H.H.F.H.H.H.F.F.H.H.H.H.F.D.V.u.O.! T T T T T T T T D h t ",
"I z =                                 < Z 8.Y.!.~.Q.R.K.H.H.H.H.H.H.H.H.H.H.H.H.H.H.H.H.H.H.H.F.D.V.u.O.! T T T T T T T T D h t ",
"I z =                                 < V 8.U.!.~.Q.R.K.H.H.F.H.H.J.H.H.H.H.H.H.H.H.H.H.H.H.H.H.D.V.u.O.! T T T T T T T T D h u ",
"I z = .                             o < V 8.U.!.~.Q.R.K.J.H.H.H.H.J.H.F.H.H.H.H.H.H.H.H.H.H.H.H.F.V.u.( Q T T T T T T T T D h u ",
"I z =                                 < V 8.R.!.~.Q.R.U.K.J.J.H.H.H.H.H.H.J.J.J.K.J.J.H.H.H.H.H.D.V.u.( Q T T T T T T T T D h u ",
"I z = .                               < Z 8.R.~.~.!.W.E.R.U.K.J.H.H.H.H.J.K.U.R.R.U.I.K.J.H.H.F.D.V.u.O.Q T T T T T T T T D h u ",
"I z =                                 < Z u.R.~.^.~.!.Q.W.R.U.J.H.H.H.H.K.U.E.W.W.E.R.K.J.H.H.F.D.V.u.O.! T T T T T T T T D h u ",
"I z =                                 < Z u.R.~.^.^.^.~.Q.W.R.K.H.H.F.J.I.R.W.!.!.W.R.I.J.H.H.H.D.V.u.O.! T T T T T T W T D h u ",
"L z =                                 < Z 8.R.~./././.^.~.Q.E.I.K.K.J.K.R.E.!.~.~.!.W.U.K.J.J.H.D.V.u.O.! T T T T T T T T D h u ",
"J k %                                 < Z 8.R.~././././.^.!.W.E.R.R.R.R.E.Q.~.^.^.~.Q.E.R.I.I.J.F.V.u.O.! T T T T T T T T D h u ",
"m p %                                 < V 8.R.~./././././.~.!.Q.W.W.W.Q.Q.!.^././.^.!.Q.W.E.R.I.F.V.u.O.! T T T T T T T T D h u ",
"b e $                               o < V 8.U.~./././././.^.^.~.~.~.~.~.~.~.^./././.^.~.!.W.E.I.F.V.u.O.! T T T T T T T T D h t ",
"c w $ .                         o o + r Z 1.I.!.^.^.^.^.^.^.^.~.~.~.~.~.^.^.^.^.^.^.^.~.!.Q.E.U.H.V.u.O.! T T T T T T T T D h t ",
"x 9 $ .                       o + ; 8 d G 1.H.W.Q.!.Q.Q.Q.Q.Q.Q.Q.Q.Q.Q.Q.Q.Q.!.!.Q.Q.Q.Q.E.R.U.H.V.u.O.! T T T T T T T T D h u ",
"l 5 @ .                       o ; t h F Q 8.Z.J.I.U.U.U.U.U.U.U.U.U.U.U.U.U.U.Y.U.U.U.U.I.I.K.J.F.V.u.O.! T T T T T T T T D h u ",
"e 4 @ .                       + t B H { =.e.k.n.n.n.n.n.n.n.n.n.n.n.n.n.n.n.n.n.n.n.n.n.n.Z.D.F.D.V.u.O.! T T T T T T T T D h u ",
"q 3 @                   o o o ; d F ( u.u.8.1.=.O.O.O.O.O.O.O.O.O.O.O.O.O.O.O.O.O.O.O.O.=.8.c.Z.S.V.u.O.! Q Q T T T T T T D h u ",
"q 3 X                 O + - ; i V T 1.c.u.1.| { Q Q Q Q Q Q Q Q Q Q Q Q Q Q Q Q Q Q Q Q ! O.8.n.V.n.u.,.( ! ! Q T T T T T D h u ",
"j 4 @                 O ; r d V H { 1.u.8.=.{ Q T T T T T T T T T T T T T T T T T T T T Q { =.u.c.c.u.8.=.O.{ ! Q T T T T D h i ",
"l 6 $ .               ; u N F Q { | =.=.O./ ! T T T T T T T T T T T T T T T T T T T T T Q ! / =.1.8.u.f.f.u.=.{ Q T T T T D h i ",
"x 0 $ .             o < h G | 8.5.O.( { { Q T T T T T T T T T T T T T T T T T T T T T T Q Q Q { ( =.u.n.V.c.1.( ! W T T T D h u ",
"v q $           o + ; i Z Q u.n.s.=.{ Q Q T T T T T T T T T T T T T T T T T T T T T T T T T T Q ! ( 8.c.V.n.8.=.( ! Q Q T D h u ",
"m e $         + ; r i B G { 8.f.8.@.! T T T T T T T T T T T T T T T T T T T T T T T T T T T T T Q { =.u.c.f.u.8.=.( { ! Q F h i ",
"M k $         ; t h D T ! ( >.>.O.( ! T T T T T T T T T T T T T T T T T T T T T T T T T T T T T Q ! { =.1.8.u.f.u.8.O.{ Q F h i ",
"J k %       o ; d G O.1.1.=...{ ~ ! Q T T T T T T T T T T T T T T T T T T T T T T T T T T T T T Q Q Q ! ( =.u.c.n.c.8.( Q F h u ",
"L z = . o o + t V Q f.n.f.1.{ Q W Q Q T T W W T T T T T T T T T T T T T T T T T T T T T T T T T T T T T ! ( 8.c.n.n.u.=.! G h i ",
"L z = @ ; 1 i h G { f.c.u.=.! T T T T T T T T T T T T T T T T T T T T T T T T T T T T T T T T T T T T T W { 1.f.c.c.u.1.O.T Z d ",
"L z = * t h D H Q ..8.1.=.( Q T T T T T T T T T T T T T T T T T T T T T T T T T T T T T T T T T T T T T T ! @.8.8.w.u.u.8.{ F h ",
"L z = 2 d F { ( | O.O.( { ! W T T T T T T T T T T T T T T T T T T T T T T T T T T T T T T T T T T T T T T ! { ( O.=.8.f.f.=.H B ",
"K z 7 r B R 8.r.1.O.! Q Q Q T T T T T T T T T T T T T T T T T T T T T T T T T T T T T T T T T T T T T T T T Q ! ! { 1.f.c.1.T Z ",
"P z > r h T =.=.| Q G F G G F D D G G G F D F G G G G G G G G F D F G G G F D F G G G G G F D D D D D D D F F G G H ! O.1.{ F B ",
"I z = ; t B G G F Z h h h h h h h h h h h h h h h h h h h h h h h h h h h h h h h h h h h h h h h h h h h h h h h B Z F G S h i ",
"K z = & < i d d d i t r r r r r r r r r r r r r r r r r r r r r r r r r r r r r r r r r r r r r r r r r r r r r r t i d d d t < ",
"K z = X + ; ; ; ; ; + + + + + + + + + + + + + + + + + + + + + + + + + + + + + + + + + + + + + + + + + + + + + + + + ; ; ; ; + O ",
"I z = .     o                                                                                                           o       "
};
