/* XPM */
static char *_c25890cfebd4871ed46d887c8e7aff4ilrGKeCIBpak7FX9[] = {
/* columns rows colors chars-per-pixel */
"44 43 85 1 ",
"  c black",
". c gray2",
"X c #0F0E00",
"o c gray3",
"O c gray6",
"+ c #110F01",
"@ c #151002",
"# c #1A1303",
"$ c #1C1304",
"% c #1D1507",
"& c #1D1608",
"* c #1D180C",
"= c #131313",
"- c #161616",
"; c #1C1D12",
": c #191919",
"> c gray11",
", c #3A3702",
"< c #222222",
"1 c gray14",
"2 c gray16",
"3 c gray18",
"4 c gray19",
"5 c #373737",
"6 c #393939",
"7 c #3C3C3C",
"8 c #413904",
"9 c #503F08",
"0 c #564109",
"q c #65470D",
"w c #6B4A0F",
"e c #6F511A",
"r c #6F541F",
"t c #6E5D2D",
"y c #6E6032",
"u c #414141",
"i c gray28",
"p c #484848",
"a c gray31",
"s c #535353",
"d c #555555",
"f c gray35",
"g c gray36",
"h c #6D6940",
"j c #6D6D46",
"k c gray38",
"l c gray40",
"z c #686868",
"x c #6D6D6D",
"c c gray44",
"v c #747474",
"b c gray47",
"n c gray50",
"m c #838383",
"M c gray52",
"N c gray54",
"B c #8E8E8E",
"V c gray57",
"C c gray58",
"Z c #9A9A9A",
"A c #9D9D9D",
"S c #A0A0A0",
"D c #A4A4A4",
"F c gray66",
"G c gray68",
"H c #B2B2B2",
"J c #B4B4B4",
"K c gray73",
"L c gray75",
"P c #C3C3C3",
"I c #C5C5C5",
"U c #CBCBCB",
"Y c #CDCDCD",
"T c #D0D0D0",
"R c gray84",
"E c #D8D8D8",
"W c gainsboro",
"Q c gray88",
"! c #E6E6E6",
"~ c #E9E9E9",
"^ c #EFEFEF",
"/ c gray94",
"( c gray97",
") c #F8F8F8",
"_ c white",
/* pixels */
"j;O1764111111111111111111111111111111113574>",
"j;>pvcgppppppppppppppppppppppppppppppppdlvk5",
"j;1gCVnxzzlllllllllllllllllllllllllllzzvNSmi",
"j;-6gxbmbcllllllllllllllllllllllllllzvmMNBx7",
"j;o-1icZNbllllllllllllllllllllllllllxmVCNbf4",
"j;   2gCNnxxzlllllllllllllllllllllzxvNZZMxa2",
"j;   :6fzbMbxllllllllllllllllllllzvmNNNMbza2",
"j;   o=>pvANvllllllllllllllllllllznVZNbcxza2",
"j;      3kBNMmbvcccccccccccccccbnmBZZMcllla2",
"j;      :5dvZHDCNNNNNNNNNNNNNNBZFHSVMbxllla2",
"j;      .O:lH!YJDDDDDDDDDDDDDDDLEQJNxzzllla2",
"j;        .pBIPPLJHGGGGGGGGGJKPTQQHMlllllla2",
"j;         2avAPRIJGGGGGGGGGLYWETUSnlllllla2",
"j;         .O1vI^RKGGGGGGGGGIQ(WIGVvlllllla2",
"j;           =xI)QYPKHGGGHKPYW!TLFBvlllllla2",
"j;           =xI)/!RIHGGGKYWETUPJFBvlllllla2",
"j;           =xI___^TJGGGPW)!UGGGFVvlllllla2",
"j;           =xI_/~EIJGGGLTQTLGGGFVvlllllla2",
"j;           =xI)!TPKHGGGJLILJGGGFBvlllllla2",
"j;           =xI(EKGGGGGGGGGGGGGGFBvlllllla2",
"j;           =xI(EKGGGGGGGGGGGGGGFBvlllllla2",
"j;           =xI(EKGGGGGGGGGGGGGGFBvlllllla2",
"j;           =xI(EPHHGGGGGHHHGGGGFBvlllllla2",
"j;           =xI)~EULHGGGJPYIKGGGFBvlllllla2",
"j;           =xI_(/QUJGGGLR~EPGGGFBvlllllla2",
"h;           =xI___/EPJJJU!_~YJHHFBvlllllla2",
"t*           =xI___(~ERRRQ^_/QTIKFBvlllllla2",
"e%           =xI____(////()_)(^RPFBvlllllla2",
"q#         o-3cJ!!!!!!!!!!!!!!QYLFBvlllllla2",
"9@         <uknZGGGGGGGGGGGHGGGGGFBvlllllla2",
",X         6xCNmbbbbbbbbbbbbbbbBAFBvlllllla2",
"8+      O:2snZMclllllllllllllllbBZBnvxzllla2",
"0@      <ulcbmvxlllllllllllllllcnMNBNbxllla2",
"w$      5xABbzzllllllllllllllllzzcMZANcllla2",
"r&   O>3svZMvllllllllllllllllllllznBCNnvxza2",
"y*   >izcbmvxllllllllllllllllllllzcbmNBNbxa2",
"j;   3zDCnzlzlllllllllllllllllllllllcNAAMxa2",
"j;O<5scCMvllllllllllllllllllllllllllxnBVNmk5",
"j;:uxvbnvxllllllllllllllllllllllllllzcbmNVvu",
"j;1kACnllllllllllllllllllllllllllllllllcNSmp",
"j;:7lksuuuuuuuuuuuuuuuuuuuuuuuuuuuuuuuuidld3",
"j;o:32<>>>>>>>>>>>>>>>>>>>>>>>>>>>>>>>>>131-",
"j;                                          "
};
