/* XPM */
static char *_0376e2e17e3411995eda9b1735cb593uy4CRrcohB78dTTB[] = {
/* columns rows colors chars-per-pixel */
"27 125 81 1 ",
"  c #97291B",
". c #1E0805",
"X c black",
"o c #262619",
"O c #202015",
"+ c #060604",
"@ c #BEBF7B",
"# c #9E9F66",
"$ c #E4E594",
"% c gray17",
"& c #505050",
"* c #393939",
"= c gray20",
"- c #484848",
"; c #8B8B8B",
": c #777777",
"> c #6C6C6C",
", c gray40",
"< c gray48",
"1 c gray60",
"2 c gray6",
"3 c #838383",
"4 c gray44",
"5 c #898989",
"6 c #8D8D8D",
"7 c gray51",
"8 c #797979",
"9 c #727272",
"0 c gray52",
"q c #9B9B9B",
"w c #3F3F3F",
"e c gray77",
"r c #C3C3C3",
"t c gray63",
"y c #D2D2D2",
"u c #E5D377",
"i c #151515",
"p c #6A6A6A",
"a c gray67",
"s c gray81",
"d c #B4B4B4",
"f c gray68",
"g c gray84",
"h c #E6C765",
"j c #808080",
"k c #F3F3F3",
"l c #C6C6C6",
"z c gray91",
"x c #E4DF8A",
"c c #FDFDFD",
"v c #F8F8F8",
"b c #DDDDDD",
"n c #C1C1C1",
"m c #F1F1F1",
"M c #BBBBBB",
"N c #DAD57E",
"B c #BFB56B",
"V c #262416",
"C c white",
"Z c #B49627",
"A c #C28D2C",
"S c #271D09",
"D c #8B7908",
"F c #8E6F0E",
"G c #1D1603",
"H c #848484",
"J c #B2B2B2",
"K c gray69",
"L c #767103",
"P c #6B6105",
"I c #161401",
"U c #A0810E",
"Y c #B17D18",
"T c #241905",
"R c #C9A336",
"E c #C0A14C",
"W c #27200F",
"Q c #1C1C0C",
"! c #121200",
"~ c #8B8D3E",
"^ c #595B00",
/* pixels */
"                           ",
"...........................",
"XXXXXXXXXXXXXXXXXXXXXXXXXXX",
"oO+XXXXXXXXXXXXXXXXXXXXXXXX",
"@#OXXXXXXXXXXXXXXXXXXXXXXXX",
"$@o%&*================*&%XX",
"$@o-;:>,,,,,,,,,,,,,,><1&XX",
"$@o2=;3,,,,,,,,,,,,,,31<*XX",
"$@oX2-43>,,,,,,,,,,>353>=XX",
"$@oXXX-6789999999980q3,,=XX",
"$@oXXX2werttttttttry0>,,=XX",
"u@oXXXXipasdffffdsgr8,,,=XX",
"h@oXXXXXXjkldffdezst9,,,=XX",
"x@oXXXXXXjcksffszedt9,,,=XX",
"$@oXXXXXXjvbnffnsdft9,,,=XX",
"$@oXXXXXXjmMffffffft9,,,=XX",
"$@oXXXXXXjmMffffffft9,,,=XX",
"$@oXXXXXXjvbnffnsdft9,,,=XX",
"NBVXXXXXXjCCbMMbkldt9,,,=XX",
"ZASXXXXXXjCCvmmvckst9,,,=XX",
"DFGXXXX2-HJJJJJJJJKt9,,,=XX",
"LPIXXX2=;3,,,,,,,,31<>,,=XX",
"UYTXXX-;:>,,,,,,,,><13,,=XX",
"REWX2-43>,,,,,,,,,,>353>=XX",
"h@o2=;3,,,,,,,,,,,,,,31<*XX",
"x@o-;:>,,,,,,,,,,,,,,><1&XX",
"$@o%&*================*&%XX",
"$@oXXXXXXXXXXXXXXXXXXXXXXXX",
"$@oXXXXXXXXXXXXXXXXXXXXXXXX",
"$@o%&*================*&%XX",
"$@o-;:>,,,,,,,,,,,,,,><1&XX",
"$@o2=;3,,,,,,,,,,,,,,31<*XX",
"$@oX2-43>,,,,,,,,,,>353>=XX",
"$@oXXX-6789999999980q3,,=XX",
"$@oXXX2werttttttttry0>,,=XX",
"$@oXXXXipasdffffdsgr8,,,=XX",
"$@oXXXXXXjkldffdezst9,,,=XX",
"$@oXXXXXXjcksffszedt9,,,=XX",
"$@oXXXXXXjvbnffnsdft9,,,=XX",
"$@oXXXXXXjmMffffffft9,,,=XX",
"$@oXXXXXXjmMffffffft9,,,=XX",
"$@oXXXXXXjvbnffnsdft9,,,=XX",
"$@oXXXXXXjCCbMMbkldt9,,,=XX",
"$@oXXXXXXjCCvmmvckst9,,,=XX",
"$@oXXXX2-HJJJJJJJJKt9,,,=XX",
"$@oXXX2=;3,,,,,,,,31<>,,=XX",
"$@oXXX-;:>,,,,,,,,><13,,=XX",
"$@oX2-43>,,,,,,,,,,>353>=XX",
"$@o2=;3,,,,,,,,,,,,,,31<*XX",
"$@o-;:>,,,,,,,,,,,,,,><1&XX",
"$@o%&*================*&%XX",
"$@oXXXXXXXXXXXXXXXXXXXXXXXX",
"$@oXXXXXXXXXXXXXXXXXXXXXXXX",
"$@o%&*================*&%XX",
"$@o-;:>,,,,,,,,,,,,,,><1&XX",
"$@o2=;3,,,,,,,,,,,,,,31<*XX",
"$@oX2-43>,,,,,,,,,,>353>=XX",
"$@oXXX-6789999999980q3,,=XX",
"$@oXXX2werttttttttry0>,,=XX",
"u@oXXXXipasdffffdsgr8,,,=XX",
"h@oXXXXXXjkldffdezst9,,,=XX",
"x@oXXXXXXjcksffszedt9,,,=XX",
"$@oXXXXXXjvbnffnsdft9,,,=XX",
"$@oXXXXXXjmMffffffft9,,,=XX",
"$@oXXXXXXjmMffffffft9,,,=XX",
"$@oXXXXXXjvbnffnsdft9,,,=XX",
"NBVXXXXXXjCCbMMbkldt9,,,=XX",
"ZASXXXXXXjCCvmmvckst9,,,=XX",
"DFGXXXX2-HJJJJJJJJKt9,,,=XX",
"LPIXXX2=;3,,,,,,,,31<>,,=XX",
"UYTXXX-;:>,,,,,,,,><13,,=XX",
"REWX2-43>,,,,,,,,,,>353>=XX",
"h@o2=;3,,,,,,,,,,,,,,31<*XX",
"x@o-;:>,,,,,,,,,,,,,,><1&XX",
"$@o%&*================*&%XX",
"$@oXXXXXXXXXXXXXXXXXXXXXXXX",
"$@oXXXXXXXXXXXXXXXXXXXXXXXX",
"$@o%&*================*&%XX",
"$@o-;:>,,,,,,,,,,,,,,><1&XX",
"$@o2=;3,,,,,,,,,,,,,,31<*XX",
"$@oX2-43>,,,,,,,,,,>353>=XX",
"$@oXXX-6789999999980q3,,=XX",
"$@oXXX2werttttttttry0>,,=XX",
"u@oXXXXipasdffffdsgr8,,,=XX",
"h@oXXXXXXjkldffdezst9,,,=XX",
"x@oXXXXXXjcksffszedt9,,,=XX",
"$@oXXXXXXjvbnffnsdft9,,,=XX",
"$@oXXXXXXjmMffffffft9,,,=XX",
"$@oXXXXXXjmMffffffft9,,,=XX",
"$@oXXXXXXjvbnffnsdft9,,,=XX",
"NBVXXXXXXjCCbMMbkldt9,,,=XX",
"ZASXXXXXXjCCvmmvckst9,,,=XX",
"DFGXXXX2-HJJJJJJJJKt9,,,=XX",
"LPIXXX2=;3,,,,,,,,31<>,,=XX",
"UYTXXX-;:>,,,,,,,,><13,,=XX",
"REWX2-43>,,,,,,,,,,>353>=XX",
"h@o2=;3,,,,,,,,,,,,,,31<*XX",
"x@o-;:>,,,,,,,,,,,,,,><1&XX",
"$@o%&*================*&%XX",
"@#OXXXXXXXXXXXXXXXXXXXXXXXX",
"oO+XXXXXXXXXXXXXXXXXXXXXXXX",
"%XX%&*================*&%XX",
"&XX-;:>,,,,,,,,,,,,,,><1&XX",
"*XX2=;3,,,,,,,,,,,,,,31<*XX",
"=XXX2-43>,,,,,,,,,,>353>=XX",
"=XXXXX-6789999999980q3,,=XX",
"=XXXXX2werttttttttry0>,,=XX",
"=XXXXXXipasdffffdsgr8,,,=XX",
"=XXXXXXXXjkldffdezst9,,,=XX",
"=XXXXXXXXjcksffszedt9,,,=XX",
"=XXXXXXXXjvbnffnsdft9,,,=XX",
"=XXXXXXXXjmMffffffft9,,,=XX",
"=XXXXXXXXjmMffffffft9,,,=XX",
"=XXXXXXXXjvbnffnsdft9,,,=XX",
"=XXXXXXXXjCCbMMbkldt9,,,=XX",
"=XXXXXXXXjCCvmmvckst9,,,=XX",
"=XXXXXX2-HJJJJJJJJKt9,,,=XX",
"=XXXXX2=;3,,,,,,,,31<>,,=XX",
"=XXXXX-;:>,,,,,,,,><13,,=XX",
"=XXX2-43>,,,,,,,,,,>353>=XX",
"*XX2=;3,,,,,,,,,,,,,,31<*XX",
"&XX-;:>,,,,,,,,,,,,,,><1&XX",
"%XX%&*================*&%XX",
"oooooooooooooooQ!!Qoooooooo",
"@@@@@@@@@@@@@@@~^^~@@@@@@@@"
};
